<?xml version="1.0" encoding="utf-8" standalone="no"?>
<!DOCTYPE svg PUBLIC "-//W3C//DTD SVG 1.1//EN"
  "http://www.w3.org/Graphics/SVG/1.1/DTD/svg11.dtd">
<svg height="345.6pt" version="1.1" viewBox="0 0 460.8 345.6" width="460.8pt" xmlns="http://www.w3.org/2000/svg" xmlns:xlink="http://www.w3.org/1999/xlink">
 <metadata>
  <rdf:RDF xmlns:cc="http://creativecommons.org/ns#" xmlns:dc="http://purl.org/dc/elements/1.1/" xmlns:rdf="http://www.w3.org/1999/02/22-rdf-syntax-ns#">
   <cc:Work>
    <dc:type rdf:resource="http://purl.org/dc/dcmitype/StillImage"/>
    <dc:date>2021-04-17T20:27:10.726198</dc:date>
    <dc:format>image/svg+xml</dc:format>
    <dc:creator>
     <cc:Agent>
      <dc:title>Matplotlib v3.4.1, https://matplotlib.org/</dc:title>
     </cc:Agent>
    </dc:creator>
   </cc:Work>
  </rdf:RDF>
 </metadata>
 <defs>
  <style type="text/css">*{stroke-linecap:butt;stroke-linejoin:round;}</style>
 </defs>
 <g id="figure_1">
  <g id="patch_1">
   <path d="M 0 345.6 
L 460.8 345.6 
L 460.8 0 
L 0 0 
z
" style="fill:#ffffff;"/>
  </g>
  <g id="axes_1">
   <g id="PathCollection_1">
    <path clip-path="url(#pdb79799f81)" d="M 30.763636 269.45213 
C 33.843578 269.45213 36.797788 268.228457 38.975636 266.050609 
C 41.153484 263.872761 42.377158 260.918551 42.377158 257.838609 
C 42.377158 254.758667 41.153484 251.804457 38.975636 249.626609 
C 36.797788 247.448761 33.843578 246.225087 30.763636 246.225087 
C 27.683694 246.225087 24.729484 247.448761 22.551636 249.626609 
C 20.373789 251.804457 19.150115 254.758667 19.150115 257.838609 
C 19.150115 260.918551 20.373789 263.872761 22.551636 266.050609 
C 24.729484 268.228457 27.683694 269.45213 30.763636 269.45213 
z
" style="fill:#bade28;stroke:#bade28;"/>
    <path clip-path="url(#pdb79799f81)" d="M 38.912059 301.666673 
C 41.988956 301.666673 44.940246 300.444209 47.115941 298.268514 
C 49.291636 296.092819 50.5141 293.14153 50.5141 290.064633 
C 50.5141 286.987736 49.291636 284.036446 47.115941 281.860751 
C 44.940246 279.685056 41.988956 278.462592 38.912059 278.462592 
C 35.835162 278.462592 32.883873 279.685056 30.708178 281.860751 
C 28.532483 284.036446 27.310019 286.987736 27.310019 290.064633 
C 27.310019 293.14153 28.532483 296.092819 30.708178 298.268514 
C 32.883873 300.444209 35.835162 301.666673 38.912059 301.666673 
z
" style="fill:#60ca60;stroke:#60ca60;"/>
    <path clip-path="url(#pdb79799f81)" d="M 47.060482 301.066541 
C 49.209256 301.066541 51.270311 300.212824 52.789723 298.693412 
C 54.309136 297.173999 55.162852 295.112945 55.162852 292.964171 
C 55.162852 290.815397 54.309136 288.754343 52.789723 287.23493 
C 51.270311 285.715518 49.209256 284.861801 47.060482 284.861801 
C 44.911709 284.861801 42.850654 285.715518 41.331242 287.23493 
C 39.811829 288.754343 38.958112 290.815397 38.958112 292.964171 
C 38.958112 295.112945 39.811829 297.173999 41.331242 298.693412 
C 42.850654 300.212824 44.911709 301.066541 47.060482 301.066541 
z
" style="fill:#56c667;stroke:#56c667;"/>
    <path clip-path="url(#pdb79799f81)" d="M 55.208905 278.598833 
C 61.355743 278.598833 67.251649 276.156669 71.598119 271.810199 
C 75.94459 267.463728 78.386754 261.567822 78.386754 255.420985 
C 78.386754 249.274147 75.94459 243.378241 71.598119 239.031771 
C 67.251649 234.6853 61.355743 232.243136 55.208905 232.243136 
C 49.062068 232.243136 43.166162 234.6853 38.819691 239.031771 
C 34.473221 243.378241 32.031057 249.274147 32.031057 255.420985 
C 32.031057 261.567822 34.473221 267.463728 38.819691 271.810199 
C 43.166162 276.156669 49.062068 278.598833 55.208905 278.598833 
z
" style="fill:#218e8d;stroke:#218e8d;"/>
    <path clip-path="url(#pdb79799f81)" d="M 63.357328 331.413691 
C 66.364987 331.413691 69.249865 330.218735 71.3766 328.091999 
C 73.503336 325.965264 74.698292 323.080386 74.698292 320.072727 
C 74.698292 317.065069 73.503336 314.180191 71.3766 312.053455 
C 69.249865 309.926719 66.364987 308.731764 63.357328 308.731764 
C 60.34967 308.731764 57.464792 309.926719 55.338056 312.053455 
C 53.211321 314.180191 52.016365 317.065069 52.016365 320.072727 
C 52.016365 323.080386 53.211321 325.965264 55.338056 328.091999 
C 57.464792 330.218735 60.34967 331.413691 63.357328 331.413691 
z
" style="fill:#1e9d89;stroke:#1e9d89;"/>
    <path clip-path="url(#pdb79799f81)" d="M 71.505751 237.273516 
C 73.195977 237.273516 74.817203 236.601982 76.012372 235.406812 
C 77.207542 234.211642 77.879076 232.590416 77.879076 230.900191 
C 77.879076 229.209965 77.207542 227.58874 76.012372 226.39357 
C 74.817203 225.1984 73.195977 224.526866 71.505751 224.526866 
C 69.815526 224.526866 68.1943 225.1984 66.99913 226.39357 
C 65.80396 227.58874 65.132427 229.209965 65.132427 230.900191 
C 65.132427 232.590416 65.80396 234.211642 66.99913 235.406812 
C 68.1943 236.601982 69.815526 237.273516 71.505751 237.273516 
z
" style="fill:#218e8d;stroke:#218e8d;"/>
    <path clip-path="url(#pdb79799f81)" d="M 79.654174 226.839558 
C 82.865831 226.839558 85.946379 225.563553 88.217363 223.292568 
C 90.488348 221.021584 91.764353 217.941036 91.764353 214.729379 
C 91.764353 211.517723 90.488348 208.437175 88.217363 206.16619 
C 85.946379 203.895206 82.865831 202.619201 79.654174 202.619201 
C 76.442518 202.619201 73.36197 203.895206 71.090985 206.16619 
C 68.820001 208.437175 67.543996 211.517723 67.543996 214.729379 
C 67.543996 217.941036 68.820001 221.021584 71.090985 223.292568 
C 73.36197 225.563553 76.442518 226.839558 79.654174 226.839558 
z
" style="fill:#3c508b;stroke:#3c508b;"/>
    <path clip-path="url(#pdb79799f81)" d="M 87.802597 275.092086 
C 89.905816 275.092086 91.923175 274.256469 93.410375 272.769269 
C 94.897576 271.282068 95.733193 269.264709 95.733193 267.16149 
C 95.733193 265.058272 94.897576 263.040913 93.410375 261.553712 
C 91.923175 260.066512 89.905816 259.230895 87.802597 259.230895 
C 85.699379 259.230895 83.682019 260.066512 82.194819 261.553712 
C 80.707619 263.040913 79.872002 265.058272 79.872002 267.16149 
C 79.872002 269.264709 80.707619 271.282068 82.194819 272.769269 
C 83.682019 274.256469 85.699379 275.092086 87.802597 275.092086 
z
" style="fill:#481d6f;stroke:#481d6f;"/>
    <path clip-path="url(#pdb79799f81)" d="M 95.95102 228.011593 
C 98.579554 228.011593 101.100783 226.967266 102.959437 225.108612 
C 104.81809 223.249958 105.862418 220.728729 105.862418 218.100196 
C 105.862418 215.471662 104.81809 212.950433 102.959437 211.091779 
C 101.100783 209.233126 98.579554 208.188798 95.95102 208.188798 
C 93.322487 208.188798 90.801258 209.233126 88.942604 211.091779 
C 87.08395 212.950433 86.039623 215.471662 86.039623 218.100196 
C 86.039623 220.728729 87.08395 223.249958 88.942604 225.108612 
C 90.801258 226.967266 93.322487 228.011593 95.95102 228.011593 
z
" style="fill:#20928c;stroke:#20928c;"/>
    <path clip-path="url(#pdb79799f81)" d="M 104.099443 237.186311 
C 108.64929 237.186311 113.013399 235.378638 116.230626 232.161411 
C 119.447853 228.944184 121.255526 224.580075 121.255526 220.030228 
C 121.255526 215.480382 119.447853 211.116273 116.230626 207.899046 
C 113.013399 204.681819 108.64929 202.874145 104.099443 202.874145 
C 99.549597 202.874145 95.185488 204.681819 91.968261 207.899046 
C 88.751034 211.116273 86.94336 215.480382 86.94336 220.030228 
C 86.94336 224.580075 88.751034 228.944184 91.968261 232.161411 
C 95.185488 235.378638 99.549597 237.186311 104.099443 237.186311 
z
" style="fill:#1fa187;stroke:#1fa187;"/>
    <path clip-path="url(#pdb79799f81)" d="M 112.247866 238.277566 
C 117.661749 238.277566 122.854623 236.126608 126.682816 232.298414 
C 130.511009 228.470221 132.661968 223.277348 132.661968 217.863465 
C 132.661968 212.449582 130.511009 207.256709 126.682816 203.428515 
C 122.854623 199.600322 117.661749 197.449364 112.247866 197.449364 
C 106.833983 197.449364 101.64111 199.600322 97.812917 203.428515 
C 93.984724 207.256709 91.833765 212.449582 91.833765 217.863465 
C 91.833765 223.277348 93.984724 228.470221 97.812917 232.298414 
C 101.64111 236.126608 106.833983 238.277566 112.247866 238.277566 
z
" style="fill:#93d741;stroke:#93d741;"/>
    <path clip-path="url(#pdb79799f81)" d="M 120.396289 261.793052 
C 124.666805 261.793052 128.762987 260.096358 131.782698 257.076647 
C 134.802409 254.056937 136.499103 249.960755 136.499103 245.690239 
C 136.499103 241.419723 134.802409 237.323541 131.782698 234.30383 
C 128.762987 231.284119 124.666805 229.587425 120.396289 229.587425 
C 116.125773 229.587425 112.029592 231.284119 109.009881 234.30383 
C 105.99017 237.323541 104.293476 241.419723 104.293476 245.690239 
C 104.293476 249.960755 105.99017 254.056937 109.009881 257.076647 
C 112.029592 260.096358 116.125773 261.793052 120.396289 261.793052 
z
" style="fill:#1f978b;stroke:#1f978b;"/>
    <path clip-path="url(#pdb79799f81)" d="M 128.544712 200.835563 
C 132.893197 200.835563 137.064165 199.107892 140.139008 196.033049 
C 143.213851 192.958206 144.941522 188.787238 144.941522 184.438754 
C 144.941522 180.090269 143.213851 175.919301 140.139008 172.844458 
C 137.064165 169.769615 132.893197 168.041944 128.544712 168.041944 
C 124.196228 168.041944 120.02526 169.769615 116.950417 172.844458 
C 113.875574 175.919301 112.147903 180.090269 112.147903 184.438754 
C 112.147903 188.787238 113.875574 192.958206 116.950417 196.033049 
C 120.02526 199.107892 124.196228 200.835563 128.544712 200.835563 
z
" style="fill:#1e9d89;stroke:#1e9d89;"/>
    <path clip-path="url(#pdb79799f81)" d="M 136.693135 320.451214 
C 138.824767 320.451214 140.869379 319.604308 142.37667 318.097017 
C 143.883961 316.589726 144.730867 314.545114 144.730867 312.413483 
C 144.730867 310.281851 143.883961 308.237239 142.37667 306.729948 
C 140.869379 305.222657 138.824767 304.375751 136.693135 304.375751 
C 134.561504 304.375751 132.516892 305.222657 131.009601 306.729948 
C 129.50231 308.237239 128.655404 310.281851 128.655404 312.413483 
C 128.655404 314.545114 129.50231 316.589726 131.009601 318.097017 
C 132.516892 319.604308 134.561504 320.451214 136.693135 320.451214 
z
" style="fill:#481d6f;stroke:#481d6f;"/>
    <path clip-path="url(#pdb79799f81)" d="M 144.841558 188.529487 
C 146.991928 188.529487 149.054514 187.675136 150.575055 186.154595 
C 152.095596 184.634054 152.949946 182.571469 152.949946 180.421099 
C 152.949946 178.270729 152.095596 176.208144 150.575055 174.687603 
C 149.054514 173.167062 146.991928 172.312711 144.841558 172.312711 
C 142.691189 172.312711 140.628603 173.167062 139.108062 174.687603 
C 137.587521 176.208144 136.73317 178.270729 136.73317 180.421099 
C 136.73317 182.571469 137.587521 184.634054 139.108062 186.154595 
C 140.628603 187.675136 142.691189 188.529487 144.841558 188.529487 
z
" style="fill:#471063;stroke:#471063;"/>
    <path clip-path="url(#pdb79799f81)" d="M 152.989981 227.349395 
C 154.630723 227.349395 156.204486 226.697521 157.364665 225.537341 
C 158.524845 224.377162 159.176719 222.803399 159.176719 221.162657 
C 159.176719 219.521915 158.524845 217.948153 157.364665 216.787973 
C 156.204486 215.627794 154.630723 214.97592 152.989981 214.97592 
C 151.34924 214.97592 149.775477 215.627794 148.615297 216.787973 
C 147.455118 217.948153 146.803244 219.521915 146.803244 221.162657 
C 146.803244 222.803399 147.455118 224.377162 148.615297 225.537341 
C 149.775477 226.697521 151.34924 227.349395 152.989981 227.349395 
z
" style="fill:#277f8e;stroke:#277f8e;"/>
    <path clip-path="url(#pdb79799f81)" d="M 161.138404 184.958175 
C 167.149515 184.958175 172.915236 182.569935 177.165733 178.319438 
C 181.416231 174.068941 183.80447 168.30322 183.80447 162.292109 
C 183.80447 156.280998 181.416231 150.515278 177.165733 146.26478 
C 172.915236 142.014283 167.149515 139.626043 161.138404 139.626043 
C 155.127294 139.626043 149.361573 142.014283 145.111076 146.26478 
C 140.860578 150.515278 138.472339 156.280998 138.472339 162.292109 
C 138.472339 168.30322 140.860578 174.068941 145.111076 178.319438 
C 149.361573 182.569935 155.127294 184.958175 161.138404 184.958175 
z
" style="fill:#453882;stroke:#453882;"/>
    <path clip-path="url(#pdb79799f81)" d="M 169.286827 253.314805 
C 173.470194 253.314805 177.482783 251.652736 180.44087 248.694649 
C 183.398957 245.736563 185.061026 241.723973 185.061026 237.540607 
C 185.061026 233.35724 183.398957 229.344651 180.44087 226.386564 
C 177.482783 223.428478 173.470194 221.766409 169.286827 221.766409 
C 165.103461 221.766409 161.090872 223.428478 158.132785 226.386564 
C 155.174698 229.344651 153.512629 233.35724 153.512629 237.540607 
C 153.512629 241.723973 155.174698 245.736563 158.132785 248.694649 
C 161.090872 251.652736 165.103461 253.314805 169.286827 253.314805 
z
" style="fill:#404588;stroke:#404588;"/>
    <path clip-path="url(#pdb79799f81)" d="M 177.43525 208.573844 
C 177.980993 208.573844 178.504456 208.357019 178.890354 207.971121 
C 179.276252 207.585223 179.493078 207.061759 179.493078 206.516017 
C 179.493078 205.970275 179.276252 205.446811 178.890354 205.060913 
C 178.504456 204.675015 177.980993 204.45819 177.43525 204.45819 
C 176.889508 204.45819 176.366045 204.675015 175.980147 205.060913 
C 175.594249 205.446811 175.377423 205.970275 175.377423 206.516017 
C 175.377423 207.061759 175.594249 207.585223 175.980147 207.971121 
C 176.366045 208.357019 176.889508 208.573844 177.43525 208.573844 
z
" style="fill:#482576;stroke:#482576;"/>
    <path clip-path="url(#pdb79799f81)" d="M 185.583673 253.668921 
C 186.950595 253.668921 188.261715 253.125837 189.228275 252.159277 
C 190.194834 251.192718 190.737918 249.881598 190.737918 248.514676 
C 190.737918 247.147755 190.194834 245.836635 189.228275 244.870075 
C 188.261715 243.903515 186.950595 243.360432 185.583673 243.360432 
C 184.216752 243.360432 182.905632 243.903515 181.939072 244.870075 
C 180.972513 245.836635 180.429429 247.147755 180.429429 248.514676 
C 180.429429 249.881598 180.972513 251.192718 181.939072 252.159277 
C 182.905632 253.125837 184.216752 253.668921 185.583673 253.668921 
z
" style="fill:#a0da39;stroke:#a0da39;"/>
    <path clip-path="url(#pdb79799f81)" d="M 193.732096 157.756156 
C 198.637938 157.756156 203.34351 155.807044 206.812464 152.33809 
C 210.281417 148.869136 212.230529 144.163565 212.230529 139.257723 
C 212.230529 134.351881 210.281417 129.64631 206.812464 126.177356 
C 203.34351 122.708402 198.637938 120.759291 193.732096 120.759291 
C 188.826255 120.759291 184.120683 122.708402 180.651729 126.177356 
C 177.182775 129.64631 175.233664 134.351881 175.233664 139.257723 
C 175.233664 144.163565 177.182775 148.869136 180.651729 152.33809 
C 184.120683 155.807044 188.826255 157.756156 193.732096 157.756156 
z
" style="fill:#fde725;stroke:#fde725;"/>
    <path clip-path="url(#pdb79799f81)" d="M 201.880519 204.838178 
C 203.878603 204.838178 205.79512 204.044331 207.207978 202.631472 
C 208.620837 201.218614 209.414684 199.302097 209.414684 197.304014 
C 209.414684 195.30593 208.620837 193.389414 207.207978 191.976555 
C 205.79512 190.563697 203.878603 189.769849 201.880519 189.769849 
C 199.882436 189.769849 197.965919 190.563697 196.553061 191.976555 
C 195.140202 193.389414 194.346355 195.30593 194.346355 197.304014 
C 194.346355 199.302097 195.140202 201.218614 196.553061 202.631472 
C 197.965919 204.044331 199.882436 204.838178 201.880519 204.838178 
z
" style="fill:#25838e;stroke:#25838e;"/>
    <path clip-path="url(#pdb79799f81)" d="M 210.028942 162.529692 
C 213.752006 162.529692 217.323083 161.050503 219.955686 158.4179 
C 222.588289 155.785297 224.067478 152.21422 224.067478 148.491157 
C 224.067478 144.768094 222.588289 141.197017 219.955686 138.564414 
C 217.323083 135.93181 213.752006 134.452622 210.028942 134.452622 
C 206.305879 134.452622 202.734802 135.93181 200.102199 138.564414 
C 197.469596 141.197017 195.990407 144.768094 195.990407 148.491157 
C 195.990407 152.21422 197.469596 155.785297 200.102199 158.4179 
C 202.734802 161.050503 206.305879 162.529692 210.028942 162.529692 
z
" style="fill:#25ab82;stroke:#25ab82;"/>
    <path clip-path="url(#pdb79799f81)" d="M 218.177365 226.260728 
C 224.50684 226.260728 230.577927 223.746001 235.053542 219.270387 
C 239.529156 214.794773 242.043883 208.723685 242.043883 202.394211 
C 242.043883 196.064736 239.529156 189.993649 235.053542 185.518035 
C 230.577927 181.04242 224.50684 178.527694 218.177365 178.527694 
C 211.847891 178.527694 205.776804 181.04242 201.301189 185.518035 
C 196.825575 189.993649 194.310848 196.064736 194.310848 202.394211 
C 194.310848 208.723685 196.825575 214.794773 201.301189 219.270387 
C 205.776804 223.746001 211.847891 226.260728 218.177365 226.260728 
z
" style="fill:#1fa187;stroke:#1fa187;"/>
    <path clip-path="url(#pdb79799f81)" d="M 226.325788 249.458793 
C 232.001964 249.458793 237.446422 247.203624 241.460085 243.189962 
C 245.473747 239.1763 247.728915 233.731841 247.728915 228.055666 
C 247.728915 222.37949 245.473747 216.935032 241.460085 212.92137 
C 237.446422 208.907707 232.001964 206.652539 226.325788 206.652539 
C 220.649613 206.652539 215.205155 208.907707 211.191492 212.92137 
C 207.17783 216.935032 204.922662 222.37949 204.922662 228.055666 
C 204.922662 233.731841 207.17783 239.1763 211.191492 243.189962 
C 215.205155 247.203624 220.649613 249.458793 226.325788 249.458793 
z
" style="fill:#bade28;stroke:#bade28;"/>
    <path clip-path="url(#pdb79799f81)" d="M 234.474212 244.985136 
C 240.808695 244.985136 246.884587 242.468419 251.363743 237.989263 
C 255.842899 233.510106 258.359616 227.434214 258.359616 221.099731 
C 258.359616 214.765248 255.842899 208.689356 251.363743 204.2102 
C 246.884587 199.731043 240.808695 197.214327 234.474212 197.214327 
C 228.139728 197.214327 222.063836 199.731043 217.58468 204.2102 
C 213.105524 208.689356 210.588807 214.765248 210.588807 221.099731 
C 210.588807 227.434214 213.105524 233.510106 217.58468 237.989263 
C 222.063836 242.468419 228.139728 244.985136 234.474212 244.985136 
z
" style="fill:#23898e;stroke:#23898e;"/>
    <path clip-path="url(#pdb79799f81)" d="M 242.622635 179.750775 
C 245.85312 179.750775 248.951729 178.46729 251.236027 176.182991 
C 253.520326 173.898693 254.803811 170.800084 254.803811 167.569598 
C 254.803811 164.339113 253.520326 161.240504 251.236027 158.956206 
C 248.951729 156.671907 245.85312 155.388422 242.622635 155.388422 
C 239.392149 155.388422 236.29354 156.671907 234.009242 158.956206 
C 231.724943 161.240504 230.441458 164.339113 230.441458 167.569598 
C 230.441458 170.800084 231.724943 173.898693 234.009242 176.182991 
C 236.29354 178.46729 239.392149 179.750775 242.622635 179.750775 
z
" style="fill:#39558c;stroke:#39558c;"/>
    <path clip-path="url(#pdb79799f81)" d="M 250.771058 153.713379 
C 252.910584 153.713379 254.96277 152.863336 256.475644 151.350462 
C 257.988518 149.837588 258.838561 147.785403 258.838561 145.645876 
C 258.838561 143.506349 257.988518 141.454163 256.475644 139.941289 
C 254.96277 138.428415 252.910584 137.578372 250.771058 137.578372 
C 248.631531 137.578372 246.579345 138.428415 245.066471 139.941289 
C 243.553597 141.454163 242.703554 143.506349 242.703554 145.645876 
C 242.703554 147.785403 243.553597 149.837588 245.066471 151.350462 
C 246.579345 152.863336 248.631531 153.713379 250.771058 153.713379 
z
" style="fill:#e5e419;stroke:#e5e419;"/>
    <path clip-path="url(#pdb79799f81)" d="M 258.919481 140.743789 
C 262.262305 140.743789 265.468667 139.41567 267.832401 137.051936 
C 270.196135 134.688202 271.524254 131.48184 271.524254 128.139016 
C 271.524254 124.796191 270.196135 121.589829 267.832401 119.226095 
C 265.468667 116.862361 262.262305 115.534242 258.919481 115.534242 
C 255.576656 115.534242 252.370294 116.862361 250.00656 119.226095 
C 247.642826 121.589829 246.314707 124.796191 246.314707 128.139016 
C 246.314707 131.48184 247.642826 134.688202 250.00656 137.051936 
C 252.370294 139.41567 255.576656 140.743789 258.919481 140.743789 
z
" style="fill:#a0da39;stroke:#a0da39;"/>
    <path clip-path="url(#pdb79799f81)" d="M 267.067904 129.991055 
C 271.088277 129.991055 274.944527 128.393744 277.78736 125.550911 
C 280.630193 122.708078 282.227504 118.851828 282.227504 114.831455 
C 282.227504 110.811082 280.630193 106.954831 277.78736 104.111998 
C 274.944527 101.269165 271.088277 99.671854 267.067904 99.671854 
C 263.04753 99.671854 259.19128 101.269165 256.348447 104.111998 
C 253.505614 106.954831 251.908303 110.811082 251.908303 114.831455 
C 251.908303 118.851828 253.505614 122.708078 256.348447 125.550911 
C 259.19128 128.393744 263.04753 129.991055 267.067904 129.991055 
z
" style="fill:#218e8d;stroke:#218e8d;"/>
    <path clip-path="url(#pdb79799f81)" d="M 275.216327 141.869237 
C 277.773512 141.869237 280.226307 140.853257 282.03451 139.045053 
C 283.842714 137.23685 284.858695 134.784055 284.858695 132.226869 
C 284.858695 129.669683 283.842714 127.216889 282.03451 125.408685 
C 280.226307 123.600482 277.773512 122.584501 275.216327 122.584501 
C 272.659141 122.584501 270.206346 123.600482 268.398143 125.408685 
C 266.589939 127.216889 265.573958 129.669683 265.573958 132.226869 
C 265.573958 134.784055 266.589939 137.23685 268.398143 139.045053 
C 270.206346 140.853257 272.659141 141.869237 275.216327 141.869237 
z
" style="fill:#23898e;stroke:#23898e;"/>
    <path clip-path="url(#pdb79799f81)" d="M 283.36475 193.581212 
C 288.200587 193.581212 292.839012 191.659913 296.258466 188.240459 
C 299.677919 184.821006 301.599218 180.182581 301.599218 175.346743 
C 301.599218 170.510906 299.677919 165.87248 296.258466 162.453027 
C 292.839012 159.033573 288.200587 157.112275 283.36475 157.112275 
C 278.528912 157.112275 273.890487 159.033573 270.471033 162.453027 
C 267.05158 165.87248 265.130281 170.510906 265.130281 175.346743 
C 265.130281 180.182581 267.05158 184.821006 270.471033 188.240459 
C 273.890487 191.659913 278.528912 193.581212 283.36475 193.581212 
z
" style="fill:#bade28;stroke:#bade28;"/>
    <path clip-path="url(#pdb79799f81)" d="M 291.513173 224.144295 
C 295.667715 224.144295 299.652657 222.493678 302.590362 219.555973 
C 305.528067 216.618268 307.178685 212.633326 307.178685 208.478783 
C 307.178685 204.324241 305.528067 200.339299 302.590362 197.401593 
C 299.652657 194.463888 295.667715 192.813271 291.513173 192.813271 
C 287.35863 192.813271 283.373688 194.463888 280.435983 197.401593 
C 277.498278 200.339299 275.84766 204.324241 275.84766 208.478783 
C 275.84766 212.633326 277.498278 216.618268 280.435983 219.555973 
C 283.373688 222.493678 287.35863 224.144295 291.513173 224.144295 
z
" style="fill:#31b57b;stroke:#31b57b;"/>
    <path clip-path="url(#pdb79799f81)" d="M 299.661596 194.411155 
C 301.036272 194.411155 302.354831 193.864991 303.326874 192.892947 
C 304.298917 191.920904 304.845082 190.602346 304.845082 189.227669 
C 304.845082 187.852993 304.298917 186.534434 303.326874 185.562391 
C 302.354831 184.590348 301.036272 184.044183 299.661596 184.044183 
C 298.286919 184.044183 296.96836 184.590348 295.996317 185.562391 
C 295.024274 186.534434 294.478109 187.852993 294.478109 189.227669 
C 294.478109 190.602346 295.024274 191.920904 295.996317 192.892947 
C 296.96836 193.864991 298.286919 194.411155 299.661596 194.411155 
z
" style="fill:#fde725;stroke:#fde725;"/>
    <path clip-path="url(#pdb79799f81)" d="M 307.810019 147.504586 
C 311.354236 147.504586 314.753769 146.096453 317.25991 143.590313 
C 319.76605 141.084172 321.174183 137.684639 321.174183 134.140422 
C 321.174183 130.596204 319.76605 127.196671 317.25991 124.69053 
C 314.753769 122.18439 311.354236 120.776257 307.810019 120.776257 
C 304.265801 120.776257 300.866268 122.18439 298.360127 124.69053 
C 295.853987 127.196671 294.445854 130.596204 294.445854 134.140422 
C 294.445854 137.684639 295.853987 141.084172 298.360127 143.590313 
C 300.866268 146.096453 304.265801 147.504586 307.810019 147.504586 
z
" style="fill:#d8e219;stroke:#d8e219;"/>
    <path clip-path="url(#pdb79799f81)" d="M 315.958442 106.254028 
C 318.514956 106.254028 320.967106 105.238315 322.774834 103.430586 
C 324.582563 101.622858 325.598277 99.170708 325.598277 96.614193 
C 325.598277 94.057679 324.582563 91.605529 322.774834 89.797801 
C 320.967106 87.990072 318.514956 86.974358 315.958442 86.974358 
C 313.401927 86.974358 310.949777 87.990072 309.142049 89.797801 
C 307.33432 91.605529 306.318607 94.057679 306.318607 96.614193 
C 306.318607 99.170708 307.33432 101.622858 309.142049 103.430586 
C 310.949777 105.238315 313.401927 106.254028 315.958442 106.254028 
z
" style="fill:#addc30;stroke:#addc30;"/>
    <path clip-path="url(#pdb79799f81)" d="M 324.106865 122.628138 
C 324.959038 122.628138 325.776423 122.289566 326.379 121.686989 
C 326.981577 121.084411 327.320149 120.267026 327.320149 119.414853 
C 327.320149 118.56268 326.981577 117.745295 326.379 117.142718 
C 325.776423 116.54014 324.959038 116.201568 324.106865 116.201568 
C 323.254691 116.201568 322.437306 116.54014 321.834729 117.142718 
C 321.232152 117.745295 320.89358 118.56268 320.89358 119.414853 
C 320.89358 120.267026 321.232152 121.084411 321.834729 121.686989 
C 322.437306 122.289566 323.254691 122.628138 324.106865 122.628138 
z
" style="fill:#46085c;stroke:#46085c;"/>
    <path clip-path="url(#pdb79799f81)" d="M 332.255288 58.162253 
C 336.117475 58.162253 339.821996 56.627789 342.552975 53.896811 
C 345.283954 51.165832 346.818417 47.46131 346.818417 43.599123 
C 346.818417 39.736936 345.283954 36.032415 342.552975 33.301436 
C 339.821996 30.570457 336.117475 29.035994 332.255288 29.035994 
C 328.393101 29.035994 324.688579 30.570457 321.9576 33.301436 
C 319.226622 36.032415 317.692158 39.736936 317.692158 43.599123 
C 317.692158 47.46131 319.226622 51.165832 321.9576 53.896811 
C 324.688579 56.627789 328.393101 58.162253 332.255288 58.162253 
z
" style="fill:#31668e;stroke:#31668e;"/>
    <path clip-path="url(#pdb79799f81)" d="M 340.403711 133.764541 
C 343.63901 133.764541 346.742235 132.479143 349.029937 130.191441 
C 351.31764 127.903738 352.603038 124.800513 352.603038 121.565214 
C 352.603038 118.329914 351.31764 115.226689 349.029937 112.938987 
C 346.742235 110.651285 343.63901 109.365887 340.403711 109.365887 
C 337.168411 109.365887 334.065186 110.651285 331.777484 112.938987 
C 329.489782 115.226689 328.204384 118.329914 328.204384 121.565214 
C 328.204384 124.800513 329.489782 127.903738 331.777484 130.191441 
C 334.065186 132.479143 337.168411 133.764541 340.403711 133.764541 
z
" style="fill:#3e4a89;stroke:#3e4a89;"/>
    <path clip-path="url(#pdb79799f81)" d="M 348.552134 143.851676 
C 352.336484 143.851676 355.966348 142.348138 358.642288 139.672198 
C 361.318228 136.996258 362.821766 133.366394 362.821766 129.582044 
C 362.821766 125.797693 361.318228 122.167829 358.642288 119.491889 
C 355.966348 116.815949 352.336484 115.312411 348.552134 115.312411 
C 344.767783 115.312411 341.13792 116.815949 338.461979 119.491889 
C 335.786039 122.167829 334.282501 125.797693 334.282501 129.582044 
C 334.282501 133.366394 335.786039 136.996258 338.461979 139.672198 
C 341.13792 142.348138 344.767783 143.851676 348.552134 143.851676 
z
" style="fill:#277f8e;stroke:#277f8e;"/>
    <path clip-path="url(#pdb79799f81)" d="M 356.700557 159.982826 
C 361.980732 159.982826 367.045356 157.88499 370.779004 154.151343 
C 374.512652 150.417695 376.610488 145.353071 376.610488 140.072895 
C 376.610488 134.79272 374.512652 129.728096 370.779004 125.994448 
C 367.045356 122.2608 361.980732 120.162964 356.700557 120.162964 
C 351.420381 120.162964 346.355757 122.2608 342.622109 125.994448 
C 338.888461 129.728096 336.790625 134.79272 336.790625 140.072895 
C 336.790625 145.353071 338.888461 150.417695 342.622109 154.151343 
C 346.355757 157.88499 351.420381 159.982826 356.700557 159.982826 
z
" style="fill:#60ca60;stroke:#60ca60;"/>
    <path clip-path="url(#pdb79799f81)" d="M 364.84898 59.834776 
C 367.166251 59.834776 369.388925 58.914114 371.027483 57.275556 
C 372.666041 55.636997 373.586703 53.414324 373.586703 51.097052 
C 373.586703 48.779781 372.666041 46.557107 371.027483 44.918549 
C 369.388925 43.279991 367.166251 42.359329 364.84898 42.359329 
C 362.531708 42.359329 360.309035 43.279991 358.670476 44.918549 
C 357.031918 46.557107 356.111256 48.779781 356.111256 51.097052 
C 356.111256 53.414324 357.031918 55.636997 358.670476 57.275556 
C 360.309035 58.914114 362.531708 59.834776 364.84898 59.834776 
z
" style="fill:#21a685;stroke:#21a685;"/>
    <path clip-path="url(#pdb79799f81)" d="M 372.997403 154.166258 
C 374.010154 154.166258 374.981562 153.763888 375.697686 153.047764 
C 376.41381 152.331641 376.81618 151.360232 376.81618 150.347481 
C 376.81618 149.334729 376.41381 148.363321 375.697686 147.647197 
C 374.981562 146.931074 374.010154 146.528703 372.997403 146.528703 
C 371.984651 146.528703 371.013243 146.931074 370.297119 147.647197 
C 369.580996 148.363321 369.178625 149.334729 369.178625 150.347481 
C 369.178625 151.360232 369.580996 152.331641 370.297119 153.047764 
C 371.013243 153.763888 371.984651 154.166258 372.997403 154.166258 
z
" style="fill:#423f85;stroke:#423f85;"/>
    <path clip-path="url(#pdb79799f81)" d="M 381.145826 118.20361 
C 385.353557 118.20361 389.389517 116.531861 392.364832 113.556546 
C 395.340147 110.58123 397.011897 106.54527 397.011897 102.337539 
C 397.011897 98.129808 395.340147 94.093848 392.364832 91.118533 
C 389.389517 88.143217 385.353557 86.471468 381.145826 86.471468 
C 376.938094 86.471468 372.902134 88.143217 369.926819 91.118533 
C 366.951504 94.093848 365.279754 98.129808 365.279754 102.337539 
C 365.279754 106.54527 366.951504 110.58123 369.926819 113.556546 
C 372.902134 116.531861 376.938094 118.20361 381.145826 118.20361 
z
" style="fill:#46085c;stroke:#46085c;"/>
    <path clip-path="url(#pdb79799f81)" d="M 389.294249 54.81646 
C 391.298131 54.81646 393.220209 54.020309 394.637168 52.603351 
C 396.054126 51.186392 396.850277 49.264314 396.850277 47.260432 
C 396.850277 45.256549 396.054126 43.334471 394.637168 41.917513 
C 393.220209 40.500554 391.298131 39.704403 389.294249 39.704403 
C 387.290366 39.704403 385.368288 40.500554 383.95133 41.917513 
C 382.534371 43.334471 381.73822 45.256549 381.73822 47.260432 
C 381.73822 49.264314 382.534371 51.186392 383.95133 52.603351 
C 385.368288 54.020309 387.290366 54.81646 389.294249 54.81646 
z
" style="fill:#440154;stroke:#440154;"/>
    <path clip-path="url(#pdb79799f81)" d="M 397.442672 93.148057 
C 400.754988 93.148057 403.932087 91.832059 406.274249 89.489898 
C 408.61641 87.147736 409.932408 83.970637 409.932408 80.658321 
C 409.932408 77.346004 408.61641 74.168905 406.274249 71.826743 
C 403.932087 69.484582 400.754988 68.168584 397.442672 68.168584 
C 394.130355 68.168584 390.953256 69.484582 388.611094 71.826743 
C 386.268933 74.168905 384.952935 77.346004 384.952935 80.658321 
C 384.952935 83.970637 386.268933 87.147736 388.611094 89.489898 
C 390.953256 91.832059 394.130355 93.148057 397.442672 93.148057 
z
" style="fill:#471063;stroke:#471063;"/>
    <path clip-path="url(#pdb79799f81)" d="M 405.591095 100.165672 
C 407.821731 100.165672 409.961308 99.27943 411.538606 97.702132 
C 413.115904 96.124833 414.002146 93.985257 414.002146 91.75462 
C 414.002146 89.523984 413.115904 87.384408 411.538606 85.807109 
C 409.961308 84.229811 407.821731 83.343569 405.591095 83.343569 
C 403.360458 83.343569 401.220882 84.229811 399.643583 85.807109 
C 398.066285 87.384408 397.180043 89.523984 397.180043 91.75462 
C 397.180043 93.985257 398.066285 96.124833 399.643583 97.702132 
C 401.220882 99.27943 403.360458 100.165672 405.591095 100.165672 
z
" style="fill:#423f85;stroke:#423f85;"/>
    <path clip-path="url(#pdb79799f81)" d="M 413.739518 35.246009 
C 416.316957 35.246009 418.789177 34.221981 420.611702 32.399457 
C 422.434226 30.576932 423.458254 28.104712 423.458254 25.527273 
C 423.458254 22.949834 422.434226 20.477613 420.611702 18.655089 
C 418.789177 16.832564 416.316957 15.808537 413.739518 15.808537 
C 411.162079 15.808537 408.689858 16.832564 406.867334 18.655089 
C 405.044809 20.477613 404.020782 22.949834 404.020782 25.527273 
C 404.020782 28.104712 405.044809 30.576932 406.867334 32.399457 
C 408.689858 34.221981 411.162079 35.246009 413.739518 35.246009 
z
" style="fill:#472c7a;stroke:#472c7a;"/>
    <path clip-path="url(#pdb79799f81)" d="M 421.887941 104.809047 
C 426.257518 104.809047 430.448716 103.072996 433.538474 99.983238 
C 436.628231 96.893481 438.364282 92.702282 438.364282 88.332705 
C 438.364282 83.963128 436.628231 79.77193 433.538474 76.682172 
C 430.448716 73.592415 426.257518 71.856364 421.887941 71.856364 
C 417.518364 71.856364 413.327165 73.592415 410.237408 76.682172 
C 407.14765 79.77193 405.411599 83.963128 405.411599 88.332705 
C 405.411599 92.702282 407.14765 96.893481 410.237408 99.983238 
C 413.327165 103.072996 417.518364 104.809047 421.887941 104.809047 
z
" style="fill:#481d6f;stroke:#481d6f;"/>
    <path clip-path="url(#pdb79799f81)" d="M 430.036364 110.103451 
C 433.612755 110.103451 437.043148 108.682535 439.572038 106.153645 
C 442.100928 103.624755 443.521844 100.194362 443.521844 96.617971 
C 443.521844 93.04158 442.100928 89.611187 439.572038 87.082297 
C 437.043148 84.553406 433.612755 83.132491 430.036364 83.132491 
C 426.459973 83.132491 423.02958 84.553406 420.500689 87.082297 
C 417.971799 89.611187 416.550884 93.04158 416.550884 96.617971 
C 416.550884 100.194362 417.971799 103.624755 420.500689 106.153645 
C 423.02958 108.682535 426.459973 110.103451 430.036364 110.103451 
z
" style="fill:#365c8d;stroke:#365c8d;"/>
   </g>
  </g>
 </g>
 <defs>
  <clipPath id="pdb79799f81">
   <rect height="324" width="439.2" x="10.8" y="10.8"/>
  </clipPath>
 </defs>
</svg>
