<?xml version="1.0" encoding="utf-8" standalone="no"?>
<!DOCTYPE svg PUBLIC "-//W3C//DTD SVG 1.1//EN"
  "http://www.w3.org/Graphics/SVG/1.1/DTD/svg11.dtd">
<svg height="345.6pt" version="1.1" viewBox="0 0 460.8 345.6" width="460.8pt" xmlns="http://www.w3.org/2000/svg" xmlns:xlink="http://www.w3.org/1999/xlink">
 <metadata>
  <rdf:RDF xmlns:cc="http://creativecommons.org/ns#" xmlns:dc="http://purl.org/dc/elements/1.1/" xmlns:rdf="http://www.w3.org/1999/02/22-rdf-syntax-ns#">
   <cc:Work>
    <dc:type rdf:resource="http://purl.org/dc/dcmitype/StillImage"/>
    <dc:date>2021-04-17T20:43:11.765487</dc:date>
    <dc:format>image/svg+xml</dc:format>
    <dc:creator>
     <cc:Agent>
      <dc:title>Matplotlib v3.4.1, https://matplotlib.org/</dc:title>
     </cc:Agent>
    </dc:creator>
   </cc:Work>
  </rdf:RDF>
 </metadata>
 <defs>
  <style type="text/css">*{stroke-linecap:butt;stroke-linejoin:round;}</style>
 </defs>
 <g id="figure_1">
  <g id="patch_1">
   <path d="M 0 345.6 
L 460.8 345.6 
L 460.8 0 
L 0 0 
z
"/>
  </g>
  <g id="axes_1">
   <g id="line2d_1">
    <path clip-path="url(#p32ffd00f17)" d="M 231.401215 169.718577 
L 230.866992 169.103381 
L 230.135526 168.596311 
L 229.231655 168.249596 
L 228.265303 168.111498 
L 227.220344 168.183935 
L 226.142784 168.488948 
L 225.15757 168.991152 
L 224.231422 169.705618 
L 223.4081 170.624943 
L 222.730263 171.733007 
L 222.268242 172.902192 
L 221.992252 174.185864 
L 221.926086 175.553341 
L 222.088347 176.969426 
L 222.491632 178.395293 
L 223.078239 179.675591 
L 223.871759 180.896319 
L 224.866277 182.024243 
L 226.050586 183.026721 
L 227.408252 183.872541 
L 228.917809 184.532748 
L 230.4 184.95 
L 231.963407 185.175639 
L 233.582733 185.195927 
L 235.23053 185.000527 
L 236.87766 184.58282 
L 238.493803 183.940164 
L 240.048007 183.074084 
L 241.50926 181.990379 
L 242.847082 180.699159 
L 244.032124 179.214791 
L 244.945157 177.728924 
L 245.693464 176.117742 
L 246.260315 174.399846 
L 246.631118 172.596023 
L 246.793703 170.728994 
L 246.738571 168.823127 
L 246.459108 166.904125 
L 245.951768 164.99867 
L 245.216206 163.134065 
L 244.255369 161.337842 
L 243.075543 159.637361 
L 241.686348 158.059409 
L 240.100683 156.629791 
L 238.539197 155.503326 
L 236.848445 154.52937 
L 235.043516 153.722594 
L 233.141145 153.096157 
L 231.159563 152.661519 
L 229.11832 152.428278 
L 227.038095 152.404018 
L 224.940483 152.594176 
L 222.847775 153.001943 
L 220.782718 153.628174 
L 218.768272 154.471329 
L 216.827354 155.527445 
L 214.982584 156.790123 
L 213.256023 158.250558 
L 211.668916 159.897581 
L 210.241441 161.717738 
L 208.992462 163.695396 
L 207.939294 165.812869 
L 207.097479 168.050577 
L 206.480582 170.387224 
L 206.1 172.8 
L 205.964799 175.264803 
L 206.081565 177.756482 
L 206.39363 179.938364 
L 206.902689 182.103244 
L 207.608116 184.233234 
L 208.507656 186.310432 
L 209.597413 188.317069 
L 210.871858 190.235658 
L 212.323849 192.049146 
L 213.944668 193.741063 
L 215.724066 195.295668 
L 217.650325 196.698093 
L 219.710333 197.934476 
L 221.889672 198.992096 
L 224.172719 199.859493 
L 226.542754 200.526581 
L 228.982085 200.984756 
L 231.47218 201.226987 
L 233.993805 201.247897 
L 236.527175 201.043831 
L 239.052108 200.612913 
L 241.548187 199.955086 
L 243.994924 199.072142 
L 246.371925 197.967727 
L 248.659065 196.647343 
L 250.836651 195.118327 
L 252.885595 193.389817 
L 254.787574 191.472701 
L 256.525195 189.379553 
L 258.082147 187.124553 
L 259.443354 184.723393 
L 260.595109 182.193168 
L 261.525208 179.552257 
L 262.223071 176.820189 
L 262.679848 174.017498 
L 262.888514 171.165572 
L 262.843951 168.286486 
L 262.543015 165.402833 
L 261.984587 162.537546 
L 261.301649 160.113707 
L 260.431999 157.734862 
L 259.37857 155.415442 
L 258.145412 153.16969 
L 256.737684 151.011573 
L 255.161631 148.954696 
L 253.424563 147.012218 
L 251.534818 145.196765 
L 249.501728 143.520355 
L 247.335569 141.994315 
L 245.047514 140.62921 
L 242.649574 139.43477 
L 240.154538 138.419825 
L 237.575899 137.59224 
L 234.927788 136.958864 
L 232.224894 136.525474 
L 229.48238 136.296732 
L 226.715802 136.276144 
L 223.941019 136.466032 
L 221.174103 136.867502 
L 218.431243 137.480431 
L 215.728654 138.303453 
L 213.082479 139.333953 
L 210.508696 140.568073 
L 208.023015 142.000723 
L 205.640792 143.625595 
L 203.376925 145.435192 
L 201.245771 147.420859 
L 199.261046 149.572826 
L 197.435749 151.88025 
L 195.782069 154.331272 
L 194.311308 156.913077 
L 193.033811 159.611959 
L 191.958889 162.413396 
L 191.094758 165.302124 
L 190.448479 168.262225 
L 190.025907 171.277211 
L 189.831645 174.330116 
L 189.869005 177.403593 
L 190.139975 180.480011 
L 190.645198 183.541558 
L 191.383955 186.570342 
L 192.354157 189.548498 
L 193.552342 192.458291 
L 194.973689 195.282221 
L 196.612028 198.00313 
L 198.459868 200.604306 
L 200.508427 203.069582 
L 202.747675 205.383438 
L 205.166379 207.5311 
L 207.752159 209.498626 
L 210.491552 211.273005 
L 213.370079 212.842232 
L 216.372325 214.195394 
L 219.482017 215.322738 
L 222.682113 216.215743 
L 225.954899 216.867177 
L 229.282083 217.271151 
L 232.644896 217.423168 
L 236.024204 217.320155 
L 239.400609 216.960499 
L 242.754569 216.344066 
L 246.066502 215.472213 
L 249.316908 214.347794 
L 252.486479 212.975156 
L 255.556214 211.360126 
L 258.507536 209.509987 
L 261.322398 207.433451 
L 263.9834 205.140614 
L 266.07133 203.072901 
L 268.031646 200.870204 
L 269.855611 198.540419 
L 271.534978 196.09201 
L 273.062029 193.533974 
L 274.429605 190.875814 
L 275.631142 188.127497 
L 276.660702 185.299421 
L 277.512999 182.402375 
L 278.183425 179.4475 
L 278.668075 176.446239 
L 278.963765 173.410302 
L 279.068052 170.351614 
L 278.979247 167.282271 
L 278.696425 164.214489 
L 278.219439 161.16056 
L 277.54892 158.1328 
L 276.686282 155.143498 
L 275.633723 152.204871 
L 274.394217 149.329007 
L 272.97151 146.527824 
L 271.370108 143.813012 
L 269.595265 141.195991 
L 267.652968 138.687859 
L 265.54991 136.299349 
L 263.293478 134.040777 
L 260.891719 131.922008 
L 258.353316 129.9524 
L 255.687556 128.140777 
L 252.904293 126.49538 
L 250.013919 125.023833 
L 247.027318 123.73311 
L 243.955829 122.629502 
L 240.811201 121.718588 
L 237.60555 121.005206 
L 234.351313 120.493432 
L 231.061195 120.186554 
L 227.748125 120.087063 
L 224.425202 120.196627 
L 221.105645 120.516089 
L 217.802739 121.045453 
L 214.529781 121.783879 
L 211.30003 122.729686 
L 208.12665 123.880348 
L 205.022656 125.232504 
L 202.000867 126.781963 
L 199.073843 128.523718 
L 196.253841 130.451962 
L 193.552761 132.560104 
L 190.982097 134.840794 
L 188.552885 137.285945 
L 186.275661 139.886766 
L 184.160412 142.633787 
L 182.216533 145.516899 
L 180.452789 148.525388 
L 178.87727 151.647975 
L 177.497362 154.87286 
L 176.319707 158.187763 
L 175.350175 161.579974 
L 174.593838 165.036399 
L 174.054938 168.543614 
L 173.736874 172.087913 
L 173.642178 175.655365 
L 173.772502 179.231866 
L 174.128604 182.803198 
L 174.710344 186.355082 
L 175.516678 189.873237 
L 176.545653 193.343438 
L 177.794419 196.751572 
L 179.259224 200.083694 
L 180.935435 203.32609 
L 182.817544 206.465327 
L 184.89919 209.488309 
L 187.173176 212.382336 
L 189.631498 215.135155 
L 192.265369 217.735007 
L 195.06525 220.170685 
L 198.02089 222.431577 
L 201.121353 224.507711 
L 204.355069 226.389803 
L 207.70987 228.069293 
L 211.173039 229.538386 
L 214.731355 230.790089 
L 218.371148 231.818238 
L 222.078348 232.617531 
L 225.83854 233.183556 
L 229.63702 233.512806 
L 233.458854 233.602706 
L 237.288934 233.451624 
L 241.112041 233.058882 
L 244.912903 232.424764 
L 248.676256 231.550524 
L 252.386906 230.438379 
L 256.029793 229.09151 
L 259.590045 227.514055 
L 263.053048 225.711093 
L 266.404496 223.68863 
L 269.630459 221.453582 
L 272.717434 219.013752 
L 275.652406 216.377798 
L 278.422899 213.555208 
L 281.017031 210.556265 
L 283.423565 207.392008 
L 285.631955 204.074193 
L 287.632394 200.61525 
L 289.415855 197.028235 
L 290.974135 193.326783 
L 292.299885 189.525053 
L 293.386651 185.637677 
L 294.2289 181.679702 
L 294.822049 177.666533 
L 295.162486 173.613872 
L 295.247591 169.537657 
L 295.07575 165.453997 
L 294.646367 161.379115 
L 293.959873 157.329276 
L 293.017725 153.320726 
L 291.822411 149.369626 
L 290.37744 145.491986 
L 288.687335 141.703604 
L 286.75762 138.019995 
L 284.594804 134.456334 
L 282.206355 131.027391 
L 279.60068 127.747468 
L 276.787094 124.630342 
L 273.775785 121.689209 
L 270.57778 118.936622 
L 267.204905 116.384446 
L 263.669738 114.043801 
L 259.985569 111.925015 
L 256.166341 110.037582 
L 252.226605 108.390117 
L 248.181461 106.99032 
L 244.046503 105.844937 
L 239.837753 104.959731 
L 235.571607 104.339457 
L 231.264765 103.987834 
L 226.934167 103.907524 
L 222.596929 104.100124 
L 218.270272 104.566147 
L 213.971455 105.305019 
L 209.717708 106.315073 
L 205.526158 107.593557 
L 201.413765 109.136631 
L 197.397253 110.939386 
L 193.493038 112.995852 
L 190.461316 114.819023 
L 187.519758 116.796046 
L 184.676179 118.922457 
L 181.938172 121.193395 
L 179.313091 123.60361 
L 176.808026 126.147481 
L 174.429788 128.819023 
L 172.184889 131.611904 
L 170.079524 134.519462 
L 168.119556 137.534716 
L 166.310497 140.650385 
L 164.657494 143.858908 
L 163.165316 147.152459 
L 161.838336 150.522965 
L 160.680524 153.962131 
L 159.695433 157.461455 
L 158.886187 161.012253 
L 158.255473 164.605678 
L 157.805532 168.232743 
L 157.538153 171.884343 
L 157.454667 175.551278 
L 157.555937 179.224277 
L 157.842362 182.894021 
L 158.313868 186.551165 
L 158.96991 190.186366 
L 159.809471 193.790301 
L 160.831062 197.353695 
L 162.032724 200.867346 
L 163.412034 204.322144 
L 164.966106 207.709098 
L 166.691601 211.019359 
L 168.584728 214.244243 
L 170.641258 217.375251 
L 172.85653 220.404098 
L 175.225464 223.322728 
L 177.742568 226.123337 
L 180.401956 228.798399 
L 183.197359 231.340676 
L 186.122137 233.74325 
L 189.169301 235.999531 
L 192.331525 238.10328 
L 195.601164 240.048626 
L 198.970275 241.830082 
L 202.430633 243.442558 
L 205.973752 244.881379 
L 209.590909 246.142296 
L 213.27316 247.221499 
L 217.011366 248.115627 
L 220.796216 248.821781 
L 224.618246 249.33753 
L 228.467868 249.660919 
L 232.335389 249.790478 
L 236.211041 249.725225 
L 240.085 249.464671 
L 243.947415 249.008824 
L 247.78843 248.358187 
L 251.598212 247.513763 
L 255.366974 246.47705 
L 259.085001 245.250043 
L 262.742677 243.835227 
L 266.330505 242.235573 
L 269.839136 240.454534 
L 273.259391 238.496034 
L 276.582287 236.364465 
L 279.799059 234.064672 
L 282.901183 231.601944 
L 285.880398 228.982003 
L 288.728732 226.210991 
L 291.438518 223.295454 
L 294.002416 220.242325 
L 296.413436 217.058915 
L 298.664953 213.752885 
L 300.750726 210.332237 
L 302.664917 206.805289 
L 304.402106 203.180657 
L 305.957305 199.467233 
L 307.325974 195.674164 
L 308.504034 191.81083 
L 309.487876 187.886819 
L 310.274375 183.911905 
L 310.860899 179.896022 
L 311.245316 175.849241 
L 311.426002 171.781744 
L 311.401845 167.703796 
L 311.172253 163.625724 
L 310.737154 159.557887 
L 310.096997 155.510651 
L 309.252758 151.494361 
L 308.205934 147.51932 
L 306.95854 143.595753 
L 305.513111 139.733791 
L 303.872692 135.943438 
L 302.040836 132.234546 
L 300.021592 128.616794 
L 297.8195 125.099657 
L 295.439577 121.692383 
L 292.887313 118.403971 
L 290.16865 115.243146 
L 287.289972 112.218333 
L 284.258091 109.33764 
L 281.080231 106.608832 
L 277.764007 104.03931 
L 274.317413 101.636097 
L 270.748797 99.40581 
L 267.066844 97.35465 
L 263.280554 95.488378 
L 259.399221 93.812305 
L 255.432407 92.331273 
L 251.389924 91.049644 
L 247.281804 89.971285 
L 243.118279 89.099557 
L 238.90975 88.437307 
L 234.666768 87.986858 
L 230.4 87.75 
L 226.120209 87.727986 
L 221.838222 87.921525 
L 217.564906 88.330781 
L 213.311137 88.955371 
L 209.087774 89.79436 
L 204.905634 90.846268 
L 200.775459 92.109066 
L 196.707893 93.580185 
L 192.713452 95.256517 
L 188.802497 97.134423 
L 184.985209 99.209742 
L 181.271559 101.477795 
L 177.671287 103.933402 
L 174.193872 106.570889 
L 170.848509 109.384103 
L 167.644085 112.366427 
L 164.589153 115.510792 
L 161.691915 118.809697 
L 158.960193 122.255227 
L 156.401412 125.839068 
L 154.02258 129.552533 
L 151.830266 133.386577 
L 149.830587 137.331824 
L 148.029187 141.378586 
L 146.43122 145.51689 
L 145.041342 149.736498 
L 143.863689 154.02694 
L 142.901874 158.377531 
L 142.158969 162.777405 
L 141.637499 167.215537 
L 141.339432 171.680773 
L 141.266177 176.161859 
L 141.418572 180.647466 
L 141.796887 185.126223 
L 142.400814 189.586742 
L 143.229476 194.017649 
L 144.281418 198.407613 
L 145.554615 202.745372 
L 147.046473 207.019768 
L 148.753836 211.219769 
L 150.672989 215.334502 
L 152.799669 219.35328 
L 155.129074 223.265628 
L 157.655872 227.061312 
L 160.374215 230.730367 
L 163.277751 234.263119 
L 166.359639 237.650215 
L 169.612564 240.882645 
L 173.028759 243.951766 
L 176.600016 246.849325 
L 180.317713 249.567485 
L 184.172829 252.098839 
L 188.155971 254.436437 
L 192.257391 256.573798 
L 196.467015 258.504937 
L 200.774466 260.224371 
L 205.169087 261.727144 
L 209.639973 263.008834 
L 214.175993 264.065569 
L 218.765817 264.894039 
L 223.397952 265.491504 
L 228.06076 265.855803 
L 232.742497 265.985362 
L 237.431335 265.879199 
L 242.115399 265.53693 
L 246.782788 264.958766 
L 251.421616 264.145522 
L 256.020033 263.098611 
L 260.56626 261.820043 
L 265.048619 260.312422 
L 269.455562 258.578944 
L 273.775699 256.623384 
L 277.997832 254.450093 
L 282.11098 252.063989 
L 286.104408 249.470541 
L 289.967659 246.675761 
L 293.690575 243.68619 
L 297.263328 240.508881 
L 300.676445 237.151383 
L 303.920833 233.621722 
L 306.987802 229.928386 
L 309.86909 226.0803 
L 312.556885 222.086806 
L 315.043844 217.957641 
L 317.323116 213.702913 
L 319.388357 209.333078 
L 321.233752 204.858909 
L 322.854027 200.291476 
L 324.244468 195.642114 
L 325.400929 190.922396 
L 326.31985 186.144108 
L 326.998264 181.319212 
L 327.433806 176.459822 
L 327.624723 171.578174 
L 327.569878 166.686589 
L 327.268756 161.79745 
L 326.721466 156.923165 
L 325.928741 152.076135 
L 324.891941 147.268729 
L 323.613049 142.513244 
L 322.094669 137.821881 
L 320.340018 133.206707 
L 318.352924 128.67963 
L 316.137813 124.252363 
L 313.699704 119.9364 
L 311.044195 115.742979 
L 308.17745 111.683057 
L 305.106186 107.767282 
L 301.837656 104.005962 
L 298.379635 100.409041 
L 294.740398 96.986071 
L 290.928702 93.746187 
L 286.953764 90.698082 
L 282.825242 87.849986 
L 278.553207 85.209642 
L 274.14812 82.784285 
L 269.620808 80.580622 
L 264.982436 78.604816 
L 260.244481 76.862468 
L 255.4187 75.358597 
L 250.517106 74.097633 
L 245.551933 73.083399 
L 240.53561 72.319101 
L 235.480726 71.807319 
L 230.4 71.55 
L 225.306251 71.548447 
L 220.212363 71.803318 
L 215.131251 72.314623 
L 210.075835 73.081719 
L 205.058998 74.103313 
L 200.09356 75.377462 
L 195.192244 76.901578 
L 190.36764 78.672429 
L 185.632177 80.686152 
L 180.998088 82.938255 
L 176.47738 85.423631 
L 172.081802 88.136567 
L 167.822816 91.070757 
L 163.711566 94.21932 
L 159.758846 97.574811 
L 155.975078 101.129243 
L 152.370281 104.874102 
L 148.954043 108.800371 
L 145.735497 112.898549 
L 142.7233 117.158674 
L 139.925603 121.57035 
L 137.350035 126.122769 
L 135.00368 130.80474 
L 132.893058 135.604714 
L 131.024105 140.510814 
L 129.402159 145.510866 
L 128.031946 150.592425 
L 126.917562 155.742809 
L 126.062466 160.949132 
L 125.469466 166.19833 
L 125.140711 171.477203 
L 125.077688 176.77244 
L 125.281208 182.070656 
L 125.751411 187.358426 
L 126.487761 192.62232 
L 127.489042 197.848933 
L 128.753365 203.024925 
L 130.278168 208.137049 
L 132.060223 213.172189 
L 134.095637 218.117393 
L 136.379871 222.959906 
L 138.907737 227.6872 
L 141.67342 232.287013 
L 144.670487 236.747373 
L 147.891901 241.056636 
L 151.330039 245.203511 
L 154.976709 249.177093 
L 158.823172 252.966892 
L 162.860158 256.562855 
L 167.077895 259.955401 
L 171.466124 263.135439 
L 176.014133 266.094399 
L 180.710777 268.824247 
L 185.544506 271.317515 
L 190.503397 273.567316 
L 195.575179 275.567364 
L 200.747266 277.311993 
L 206.006787 278.796169 
L 211.340619 280.015512 
L 216.735419 280.966297 
L 222.177657 281.645478 
L 227.653652 282.050687 
L 233.149604 282.180246 
L 238.65163 282.033173 
L 244.145797 281.609188 
L 249.618162 280.908708 
L 255.054802 279.932858 
L 260.441854 278.683459 
L 265.765547 277.163035 
L 271.012237 275.374801 
L 276.168446 273.322661 
L 281.220892 271.011194 
L 286.156528 268.445653 
L 290.962568 265.631943 
L 295.626529 262.576616 
L 300.136259 259.28685 
L 304.479967 255.770437 
L 308.646257 252.035759 
L 312.624157 248.091774 
L 316.403147 243.947991 
L 319.973187 239.614447 
L 323.324744 235.101685 
L 326.448817 230.420726 
L 329.336962 225.583044 
L 331.981314 220.600538 
L 334.374608 215.485499 
L 336.510199 210.250586 
L 338.38208 204.908788 
L 339.984902 199.473397 
L 341.313983 193.957974 
L 342.365325 188.376311 
L 343.135628 182.742401 
L 343.622295 177.070403 
L 343.823444 171.374604 
L 343.737911 165.669383 
L 343.36526 159.969177 
L 342.705778 154.288443 
L 341.760484 148.64162 
L 340.531124 143.043097 
L 339.020165 137.507169 
L 337.230798 132.048008 
L 335.166925 126.679623 
L 332.833155 121.415821 
L 330.23479 116.27018 
L 327.377817 111.256006 
L 324.268891 106.386301 
L 320.915323 101.673731 
L 317.325058 97.130593 
L 313.506662 92.768779 
L 309.469298 88.59975 
L 305.222704 84.634503 
L 300.777172 80.883543 
L 296.143521 77.356854 
L 291.333071 74.063876 
L 286.357616 71.013474 
L 281.229395 68.213919 
L 275.961061 65.672866 
L 270.565651 63.397328 
L 265.056554 61.393662 
L 259.447476 59.66755 
L 253.752408 58.223981 
L 247.985588 57.06724 
L 242.16147 56.200894 
L 237.764574 55.743441 
L 233.349901 55.451872 
L 228.923711 55.326876 
L 224.492293 55.368908 
L 220.061952 55.578185 
L 215.639004 55.954683 
L 211.229762 56.498144 
L 206.840533 57.208067 
L 202.477604 58.083716 
L 198.147235 59.124117 
L 193.85565 60.328056 
L 189.609029 61.694089 
L 185.413495 63.220535 
L 181.275112 64.905481 
L 177.199869 66.746788 
L 173.193678 68.742087 
L 169.26236 70.888788 
L 165.411638 73.18408 
L 161.647132 75.624935 
L 157.974346 78.208113 
L 154.398663 80.930165 
L 150.925337 83.78744 
L 147.559483 86.776086 
L 144.306072 89.89206 
L 141.169923 93.131128 
L 138.155696 96.488875 
L 135.267882 99.96071 
L 132.510801 103.541871 
L 129.888595 107.227433 
L 127.405217 111.012314 
L 125.064432 114.891281 
L 122.869804 118.858961 
L 120.824697 122.909843 
L 118.932267 127.03829 
L 117.195456 131.238545 
L 115.616989 135.504739 
L 114.199371 139.8309 
L 112.944881 144.210961 
L 111.855568 148.638767 
L 110.93325 153.108087 
L 110.179509 157.61262 
L 109.59569 162.146004 
L 109.182896 166.701827 
L 108.941991 171.273633 
L 108.873591 175.854935 
L 108.978072 180.43922 
L 109.25556 185.019962 
L 109.705936 189.590629 
L 110.328835 194.144692 
L 111.123644 198.675637 
L 112.089504 203.176972 
L 113.225312 207.642237 
L 114.52972 212.065011 
L 116.001138 216.438928 
L 117.637734 220.757677 
L 119.437439 225.015018 
L 121.397948 229.204788 
L 123.516722 233.320911 
L 125.790993 237.357406 
L 128.217767 241.308398 
L 130.793828 245.16812 
L 133.515741 248.930932 
L 136.379859 252.591318 
L 139.382326 256.143902 
L 142.519082 259.583455 
L 145.78587 262.904896 
L 149.178241 266.103309 
L 152.691558 269.173944 
L 156.321008 272.112226 
L 160.0616 274.91376 
L 163.908181 277.574341 
L 167.855437 280.089958 
L 171.897903 282.4568 
L 176.029967 284.671263 
L 180.245885 286.729953 
L 184.539779 288.629695 
L 188.905657 290.367534 
L 193.337409 291.940741 
L 197.828825 293.346819 
L 202.373601 294.583505 
L 206.965343 295.648773 
L 211.597585 296.540839 
L 216.26379 297.258163 
L 220.957363 297.799452 
L 225.671661 298.163662 
L 230.4 298.35 
L 235.135666 298.357924 
L 239.871924 298.187148 
L 244.602028 297.837637 
L 249.31923 297.309614 
L 254.016791 296.603556 
L 258.687989 295.720193 
L 263.326128 294.66051 
L 267.92455 293.425746 
L 272.476644 292.01739 
L 276.975855 290.437181 
L 281.415691 288.687105 
L 285.789736 286.769396 
L 290.09166 284.686527 
L 294.315223 282.441212 
L 298.45429 280.036401 
L 302.502833 277.475276 
L 306.454949 274.761244 
L 310.304859 271.89794 
L 314.046924 268.889212 
L 317.675649 265.739126 
L 321.185691 262.451953 
L 324.57187 259.032166 
L 327.829174 255.484434 
L 330.952766 251.813617 
L 333.937995 248.024757 
L 336.780397 244.12307 
L 339.475707 240.113943 
L 342.019863 236.002924 
L 344.40901 231.795715 
L 346.639512 227.498162 
L 348.707951 223.116251 
L 350.611135 218.656095 
L 352.346105 214.123929 
L 353.910133 209.5261 
L 355.300736 204.869058 
L 356.51567 200.159348 
L 357.552939 195.403598 
L 358.4108 190.608513 
L 359.08776 185.780864 
L 359.582584 180.927479 
L 359.894291 176.055232 
L 360.022165 171.171034 
L 359.965746 166.281825 
L 359.724839 161.39456 
L 359.29951 156.516205 
L 358.69009 151.653721 
L 357.897172 146.814057 
L 356.921609 142.004141 
L 355.76452 137.230869 
L 354.42728 132.501094 
L 352.911527 127.821617 
L 351.219154 123.199179 
L 349.352307 118.640449 
L 347.313386 114.152013 
L 345.105039 109.740371 
L 342.730161 105.411919 
L 340.191886 101.172947 
L 337.493587 97.029623 
L 334.638871 92.987992 
L 331.631571 89.053961 
L 328.475745 85.233292 
L 325.175668 81.531595 
L 321.735828 77.954318 
L 318.160917 74.506739 
L 314.455827 71.19396 
L 310.625643 68.020898 
L 306.675637 64.992279 
L 302.611258 62.112629 
L 298.438127 59.386269 
L 294.162026 56.817306 
L 289.788895 54.409631 
L 285.32482 52.16691 
L 280.776026 50.092579 
L 276.148867 48.189839 
L 271.449818 46.461652 
L 266.685466 44.910735 
L 261.862502 43.539555 
L 256.987709 42.350329 
L 252.067954 41.345016 
L 247.110179 40.525315 
L 242.121388 39.892666 
L 237.108641 39.448242 
L 232.079044 39.19295 
L 227.039734 39.127429 
L 221.997875 39.252047 
L 216.960643 39.566905 
L 211.935219 40.07183 
L 206.928778 40.766378 
L 201.948476 41.649836 
L 197.001446 42.721219 
L 192.094779 43.979272 
L 187.235524 45.422476 
L 182.430668 47.049041 
L 177.687133 48.856917 
L 173.011764 50.843791 
L 168.411317 53.00709 
L 163.892452 55.343989 
L 159.461722 57.85141 
L 155.125564 60.526027 
L 150.890289 63.364271 
L 146.762074 66.362337 
L 142.746952 69.516183 
L 138.850804 72.821542 
L 135.079348 76.273924 
L 131.438135 79.868623 
L 127.932536 83.600724 
L 124.567739 87.465108 
L 121.348735 91.456462 
L 118.280319 95.569282 
L 115.367075 99.797886 
L 112.613372 104.136416 
L 110.023361 108.57885 
L 107.600963 113.119011 
L 105.349866 117.750571 
L 103.273521 122.467066 
L 101.375131 127.261899 
L 99.657655 132.128354 
L 98.123794 137.059601 
L 96.775994 142.048711 
L 95.616437 147.08866 
L 94.647043 152.172344 
L 93.86946 157.292585 
L 93.285067 162.442142 
L 92.894971 167.613725 
L 92.7 172.8 
L 92.700709 177.993602 
L 92.897372 183.187145 
L 93.289985 188.373233 
L 93.878267 193.544471 
L 94.661654 198.693474 
L 95.639306 203.812878 
L 96.810103 208.895352 
L 98.17265 213.933605 
L 99.725275 218.920402 
L 101.466035 223.848568 
L 103.392715 228.711004 
L 105.502831 233.500693 
L 107.793635 238.210713 
L 110.262118 242.834245 
L 112.905015 247.364585 
L 115.718803 251.795151 
L 118.699717 256.119494 
L 121.843743 260.331309 
L 125.146633 264.424441 
L 128.603905 268.392896 
L 132.21085 272.230849 
L 135.962541 275.932654 
L 139.853836 279.49285 
L 143.879388 282.906171 
L 148.033653 286.167551 
L 152.310892 289.272137 
L 156.705185 292.21529 
L 161.210438 294.992595 
L 165.820389 297.599868 
L 170.528619 300.033161 
L 175.328559 302.288768 
L 180.213501 304.363232 
L 185.176606 306.253349 
L 190.210916 307.956173 
L 195.30936 309.469021 
L 200.464766 310.789477 
L 205.669872 311.915396 
L 210.917335 312.844907 
L 216.199741 313.576415 
L 221.509616 314.108608 
L 226.839437 314.440454 
L 232.181643 314.571205 
L 237.528644 314.5004 
L 242.872832 314.227862 
L 248.206594 313.753704 
L 253.522321 313.078325 
L 258.812419 312.202411 
L 264.069322 311.126935 
L 269.285497 309.853156 
L 274.453463 308.382617 
L 279.565794 306.717144 
L 284.615137 304.858842 
L 289.594215 302.810094 
L 294.495843 300.573559 
L 299.312936 298.152165 
L 304.038521 295.54911 
L 308.665745 292.767851 
L 313.187885 289.812109 
L 317.598361 286.685854 
L 321.89074 283.393307 
L 326.058752 279.93893 
L 330.096292 276.327423 
L 333.997437 272.563716 
L 337.756446 268.652961 
L 341.367776 264.600528 
L 344.826085 260.411996 
L 348.126243 256.093146 
L 351.263336 251.64995 
L 354.23268 247.088567 
L 357.02982 242.415333 
L 359.650543 237.636751 
L 362.090878 232.759484 
L 364.347109 227.790342 
L 366.415777 222.736278 
L 368.293684 217.604374 
L 369.977901 212.401832 
L 371.46577 207.135965 
L 372.75491 201.814186 
L 373.843219 196.443996 
L 374.728878 191.032977 
L 375.410357 185.58878 
L 375.886412 180.11911 
L 376.156091 174.631721 
L 376.218734 169.134404 
L 376.073977 163.63497 
L 375.72175 158.141248 
L 375.162276 152.661067 
L 374.396078 147.202248 
L 373.423972 141.77259 
L 372.247067 136.379863 
L 370.866767 131.031795 
L 369.284768 125.736059 
L 367.503055 120.500263 
L 365.5239 115.331943 
L 363.349858 110.238546 
L 360.983768 105.227422 
L 358.428744 100.305815 
L 355.688173 95.48085 
L 352.765714 90.759525 
L 349.665285 86.148698 
L 346.391068 81.65508 
L 342.947494 77.285222 
L 339.339243 73.04551 
L 335.571235 68.942151 
L 331.648624 64.981166 
L 327.576793 61.168382 
L 323.361342 57.509422 
L 319.008084 54.009697 
L 314.523035 50.674398 
L 309.91241 47.50849 
L 305.182606 44.516703 
L 300.340203 41.703523 
L 295.391946 39.073189 
L 290.344742 36.629686 
L 285.205647 34.376736 
L 279.981858 32.317796 
L 274.680701 30.456051 
L 269.309623 28.794407 
L 263.876179 27.335492 
L 258.388023 26.081647 
L 252.852897 25.034924 
L 247.27862 24.197082 
L 241.673078 23.569586 
L 236.04421 23.153603 
L 230.4 22.95 
L 224.748463 22.959342 
L 219.097635 23.181891 
L 213.455562 23.617608 
L 207.830288 24.266148 
L 202.229843 25.126864 
L 196.662232 26.198804 
L 191.135424 27.480716 
L 185.657339 28.971045 
L 180.235841 30.66794 
L 174.878719 32.569251 
L 169.593683 34.672534 
L 164.388351 36.975057 
L 159.270234 39.473797 
L 154.246733 42.165449 
L 149.325119 45.04643 
L 144.512531 48.112882 
L 139.81596 51.360678 
L 135.242241 54.785426 
L 130.798042 58.382479 
L 126.489857 62.146936 
L 122.323992 66.073653 
L 118.306561 70.157247 
L 114.443473 74.392106 
L 110.740425 78.772394 
L 107.202892 83.292062 
L 103.836123 87.944853 
L 100.645127 92.724313 
L 97.634672 97.623801 
L 94.809274 102.636494 
L 92.173191 107.755401 
L 89.730415 112.973369 
L 87.484671 118.283096 
L 85.439406 123.677141 
L 83.597787 129.147932 
L 81.962693 134.687777 
L 80.536715 140.288879 
L 79.322147 145.943342 
L 78.320987 151.643183 
L 77.53493 157.380346 
L 76.965367 163.146711 
L 76.613383 168.934107 
L 76.479754 174.734321 
L 76.564946 180.539112 
L 76.869114 186.340224 
L 77.392102 192.129393 
L 78.133441 197.898362 
L 79.092351 203.638896 
L 80.26774 209.342784 
L 81.658208 215.001863 
L 83.262046 220.608019 
L 85.07724 226.153206 
L 87.10147 231.629453 
L 89.332118 237.028878 
L 91.766268 242.343699 
L 94.400708 247.566243 
L 97.231941 252.688961 
L 100.256183 257.704436 
L 103.469369 262.605393 
L 106.867163 267.384714 
L 110.444957 272.035442 
L 114.197885 276.550796 
L 118.120822 280.92418 
L 122.208397 285.149192 
L 126.454995 289.219631 
L 130.85477 293.129512 
L 135.40165 296.873068 
L 140.089346 300.444764 
L 144.911359 303.839302 
L 149.860993 307.051629 
L 154.93136 310.076947 
L 160.115393 312.910716 
L 165.405853 315.548665 
L 170.795342 317.986797 
L 176.27631 320.221393 
L 181.84107 322.249021 
L 187.481802 324.066537 
L 193.190572 325.671096 
L 198.959338 327.060149 
L 204.779963 328.231453 
L 210.644224 329.183072 
L 216.543828 329.91338 
L 222.470422 330.421066 
L 228.415601 330.705131 
L 234.370927 330.764897 
L 240.327935 330.600002 
L 246.278147 330.210404 
L 252.213085 329.596383 
L 258.124283 328.758535 
L 264.003297 327.697779 
L 269.841719 326.415352 
L 275.631189 324.912807 
L 281.363406 323.192013 
L 287.030141 321.255152 
L 292.623247 319.104717 
L 298.134673 316.743507 
L 303.556474 314.174626 
L 308.880823 311.401476 
L 314.100022 308.427756 
L 319.206514 305.257454 
L 324.192893 301.894842 
L 329.051914 298.344472 
L 333.776507 294.61117 
L 338.359783 290.700027 
L 342.795046 286.616393 
L 347.075803 282.365872 
L 351.195772 277.95431 
L 355.148895 273.387792 
L 358.929342 268.672629 
L 362.531523 263.815353 
L 365.950094 258.822705 
L 369.179967 253.701628 
L 372.216315 248.459256 
L 375.054584 243.102902 
L 377.690494 237.640055 
L 380.120048 232.07836 
L 382.339539 226.425616 
L 384.345554 220.689757 
L 386.13498 214.878847 
L 387.705009 209.001069 
L 389.053143 203.064706 
L 390.177195 197.078138 
L 391.075295 191.049825 
L 391.745894 184.988299 
L 392.187764 178.902146 
L 392.4 172.8 
L 392.382026 166.690527 
L 392.13359 160.582414 
L 391.654769 154.484357 
L 390.94597 148.405047 
L 390.007926 142.35316 
L 388.841697 136.337342 
L 387.448671 130.366199 
L 385.830559 124.448284 
L 383.989395 118.592083 
L 381.927533 112.806005 
L 379.647646 107.09837 
L 377.152717 101.477394 
L 374.446042 95.951182 
L 371.531221 90.527711 
L 368.412154 85.214824 
L 365.093039 80.020214 
L 361.578361 74.951415 
L 357.87289 70.015791 
L 353.981675 65.220525 
L 349.910033 60.572609 
L 345.663544 56.078834 
L 341.248047 51.745777 
L 336.669624 47.579797 
L 331.9346 43.58702 
L 327.049529 39.773336 
L 322.021186 36.144382 
L 316.856558 32.705544 
L 311.562836 29.46194 
L 306.147401 26.418416 
L 300.617818 23.579542 
L 294.981821 20.949598 
L 289.247308 18.532575 
L 283.422324 16.332162 
L 277.515052 14.351747 
L 271.533805 12.594408 
L 265.487007 11.062907 
L 259.383188 9.759691 
L 253.230969 8.686881 
L 247.039049 7.846275 
L 240.816194 7.239342 
L 234.571224 6.86722 
L 228.313002 6.730713 
L 222.050419 6.830292 
L 215.792384 7.166091 
L 209.547809 7.737909 
L 203.325596 8.545207 
L 197.134628 9.587112 
L 190.983753 10.862414 
L 184.881771 12.369572 
L 178.837424 14.10671 
L 172.859383 16.071624 
L 166.956231 18.261782 
L 161.136459 20.674331 
L 155.408445 23.306094 
L 149.78045 26.153582 
L 144.260598 29.212993 
L 138.856873 32.480217 
L 133.577098 35.950847 
L 128.428933 39.620179 
L 123.419857 43.483221 
L 118.55716 47.5347 
L 113.847932 51.769068 
L 109.299054 56.180509 
L 104.917184 60.762951 
L 100.708752 65.510069 
L 96.679948 70.415297 
L 92.836714 75.471838 
L 89.184732 80.672668 
L 85.729422 86.010552 
L 82.475927 91.478053 
L 79.429111 97.067537 
L 76.593547 102.77119 
L 73.973515 108.581026 
L 71.57299 114.488899 
L 69.395642 120.486513 
L 67.444826 126.565436 
L 65.723579 132.717109 
L 64.234612 138.932862 
L 62.980313 145.203921 
L 61.962734 151.521425 
L 61.183596 157.876436 
L 60.64428 164.259953 
L 60.345828 170.662924 
L 60.28894 177.076258 
L 60.473973 183.490839 
L 60.900941 189.897541 
L 61.569511 196.287237 
L 62.479008 202.650813 
L 63.628413 208.979183 
L 65.016362 215.263301 
L 66.641153 221.494173 
L 68.500743 227.662871 
L 70.592751 233.760545 
L 72.914466 239.778437 
L 75.462844 245.707891 
L 78.234516 251.540369 
L 81.225791 257.26746 
L 84.432661 262.880894 
L 87.850806 268.372553 
L 91.475602 273.734484 
L 95.302123 278.958909 
L 99.325153 284.038237 
L 103.539189 288.965077 
L 107.938448 293.732243 
L 112.516881 298.332771 
L 117.268173 302.759927 
L 122.185758 307.007212 
L 127.262825 311.068381 
L 132.492329 314.937444 
L 137.866999 318.608678 
L 143.37935 322.076636 
L 149.021692 325.336154 
L 154.786141 328.382358 
L 160.664632 331.210674 
L 166.648926 333.816832 
L 172.730627 336.196874 
L 178.901188 338.347158 
L 185.151928 340.264367 
L 191.474042 341.945511 
L 197.858611 343.387933 
L 204.296621 344.589314 
L 210.778969 345.547673 
L 217.29648 346.261375 
L 221.648005 346.6 
M 244.265247 346.6 
L 250.086848 346.127147 
L 256.620194 345.358089 
L 263.123523 344.342716 
L 269.587548 343.082199 
L 276.003025 341.578058 
L 282.360771 339.832163 
L 288.651674 337.84673 
L 294.866708 335.624318 
L 300.996943 333.167826 
L 307.033563 330.480491 
L 312.967871 327.56588 
L 318.791311 324.42789 
L 324.495472 321.070738 
L 330.072104 317.49896 
L 335.513131 313.7174 
L 340.810659 309.731207 
L 345.956992 305.545829 
L 350.944638 301.167001 
L 355.766325 296.600741 
L 360.415007 291.85334 
L 364.88388 286.931354 
L 369.166384 281.841595 
L 373.256221 276.59112 
L 377.147358 271.187225 
L 380.834039 265.63743 
L 384.310793 259.949473 
L 387.572442 254.131296 
L 390.614107 248.191036 
L 393.431219 242.137011 
L 396.019522 235.977712 
L 398.375082 229.721788 
L 400.494292 223.378036 
L 402.373877 216.955387 
L 404.0109 210.462893 
L 405.402766 203.909719 
L 406.547226 197.305121 
L 407.44238 190.658444 
L 408.086683 183.979099 
L 408.478943 177.276555 
L 408.618328 170.560325 
L 408.504362 163.839951 
L 408.136932 157.124992 
L 407.516285 150.42501 
L 406.643027 143.749554 
L 405.518127 137.108152 
L 404.142911 130.51029 
L 402.519064 123.965405 
L 400.648627 117.482868 
L 398.533993 111.071971 
L 396.177906 104.741915 
L 393.583457 98.501795 
L 390.754079 92.360589 
L 387.693544 86.327143 
L 384.405956 80.410158 
L 380.895749 74.618181 
L 377.167675 68.95959 
L 373.226804 63.44258 
L 369.078514 58.075155 
L 364.728485 52.865116 
L 360.182687 47.820045 
L 355.447379 42.947299 
L 350.529093 38.253999 
L 345.434633 33.747016 
L 340.171056 29.432965 
L 334.745671 25.318192 
L 329.166024 21.408766 
L 323.439888 17.710473 
L 317.575254 14.228801 
L 311.580319 10.968938 
L 305.463473 7.93576 
L 299.23329 5.133827 
L 292.898513 2.567374 
L 286.468043 0.240306 
L 282.683676 -1 
M 172.881656 -1 
L 167.276167 0.864135 
L 160.80381 3.275532 
L 154.423574 5.930614 
L 148.144637 8.825863 
L 141.97604 11.957414 
L 135.926678 15.321061 
L 130.005284 18.912263 
L 124.22042 22.726151 
L 118.580462 26.757535 
L 113.093588 31.000907 
L 107.767768 35.450454 
L 102.610749 40.100061 
L 97.630047 44.943326 
L 92.832937 49.973559 
L 88.226437 55.1838 
L 83.817304 60.566827 
L 79.612018 66.11516 
L 75.616778 71.821079 
L 71.83749 77.676632 
L 68.279759 83.673643 
L 64.94888 89.803729 
L 61.84983 96.058305 
L 58.987264 102.428605 
L 56.365502 108.905683 
L 53.988527 115.480438 
L 51.859978 122.143615 
L 49.983145 128.885826 
L 48.360961 135.69756 
L 46.996001 142.569199 
L 45.890476 149.491027 
L 45.046232 156.453247 
L 44.464741 163.445995 
L 44.147107 170.459354 
L 44.094056 177.483365 
L 44.30594 184.508046 
L 44.782734 191.523401 
L 45.524036 198.51944 
L 46.529066 205.486186 
L 47.796669 212.413698 
L 49.325315 219.292077 
L 51.1131 226.111485 
L 53.15775 232.862157 
L 55.456623 239.534418 
L 58.00671 246.11869 
L 60.804646 252.605516 
L 63.846706 258.985563 
L 67.128814 265.249643 
L 70.64655 271.388723 
L 74.395153 277.393938 
L 78.369526 283.256605 
L 82.564251 288.968234 
L 86.973585 294.520544 
L 91.591476 299.905468 
L 96.41157 305.115173 
L 101.427218 310.142063 
L 106.631484 314.978799 
L 112.017158 319.618301 
L 117.576765 324.053766 
L 123.302572 328.278672 
L 129.186605 332.286791 
L 135.220654 336.072195 
L 141.396288 339.629272 
L 147.704866 342.952723 
L 154.137548 346.037581 
L 155.390135 346.6 
M 310.720738 346.6 
L 316.287267 344.014252 
L 322.726165 340.74067 
L 329.040282 337.224905 
L 335.22051 333.471714 
L 341.257919 329.486197 
L 347.143773 325.273787 
L 352.869546 320.84025 
L 358.426928 316.19167 
L 363.807843 311.334442 
L 369.004456 306.275266 
L 374.009186 301.021138 
L 378.81472 295.579334 
L 383.414018 289.957409 
L 387.80033 284.163179 
L 391.967199 278.204715 
L 395.908476 272.090328 
L 399.618325 265.828561 
L 403.091236 259.428175 
L 406.322028 252.898137 
L 409.305861 246.247606 
L 412.038243 239.485924 
L 414.515031 232.6226 
L 416.732446 225.667296 
L 418.687072 218.629816 
L 420.375865 211.520091 
L 421.796155 204.348162 
L 422.945653 197.124173 
L 423.822451 189.858348 
L 424.425028 182.560984 
L 424.752254 175.242431 
L 424.803386 167.913081 
L 424.578076 160.583351 
L 424.076369 153.263669 
L 423.298702 145.964459 
L 422.245905 138.696127 
L 420.919203 131.469044 
L 419.320208 124.293535 
L 417.450926 117.179859 
L 415.313746 110.138199 
L 412.911442 103.178646 
L 410.247168 96.311183 
L 407.324453 89.545672 
L 404.147199 82.89184 
L 400.719674 76.359266 
L 397.046505 69.957363 
L 393.132674 63.69537 
L 388.983511 57.582335 
L 384.604686 51.627103 
L 380.0022 45.838303 
L 375.18238 40.224336 
L 370.151869 34.793363 
L 364.917614 29.553291 
L 359.486861 24.511765 
L 353.867142 19.676154 
L 348.066266 15.053541 
L 342.092306 10.650714 
L 335.953592 6.474153 
L 329.658694 2.530025 
L 323.531165 -1 
M 131.884946 -1 
L 125.430406 2.706967 
L 119.040024 6.703412 
L 112.801805 10.93997 
L 106.724771 15.410846 
L 100.817726 20.109908 
L 95.089238 25.030692 
L 89.54763 30.166412 
L 84.200968 35.509971 
L 79.057047 41.053967 
L 74.123382 46.790708 
L 69.407195 52.712219 
L 64.915407 58.810254 
L 60.654625 65.076309 
L 56.631135 71.501632 
L 52.85089 78.077235 
L 49.319503 84.793909 
L 46.042238 91.642234 
L 43.024004 98.612595 
L 40.269345 105.695193 
L 37.782432 112.880059 
L 35.567064 120.157072 
L 33.626652 127.515966 
L 31.964223 134.946351 
L 30.582409 142.437726 
L 29.483447 149.979491 
L 28.66917 157.560965 
L 28.141013 165.171401 
L 27.9 172.8 
L 27.946751 180.435925 
L 28.281475 188.068322 
L 28.903973 195.686327 
L 29.813634 203.27909 
L 31.00944 210.835784 
L 32.489964 218.345624 
L 34.253372 225.797882 
L 36.297427 233.1819 
L 38.619488 240.487108 
L 41.216519 247.703039 
L 44.085087 254.819341 
L 47.22137 261.825795 
L 50.621163 268.712328 
L 54.279881 275.469029 
L 58.192565 282.086161 
L 62.353891 288.554179 
L 66.758176 294.863737 
L 71.399386 301.005709 
L 76.271144 306.971198 
L 81.366738 312.751549 
L 86.679132 318.338361 
L 92.200975 323.723504 
L 97.924609 328.899125 
L 103.842085 333.857661 
L 109.945168 338.591853 
L 116.225352 343.094752 
L 121.493194 346.6 
M 344.755115 346.6 
L 350.614596 342.710892 
L 356.992244 338.136432 
L 363.195815 333.322565 
L 369.216321 328.275916 
L 375.045027 323.003448 
L 380.673462 317.51245 
L 386.093433 311.81053 
L 391.297034 305.905603 
L 396.276663 299.80588 
L 401.025026 293.519857 
L 405.535153 287.056303 
L 409.800408 280.424249 
L 413.814493 273.632971 
L 417.571467 266.691984 
L 421.065745 259.611021 
L 424.292112 252.400027 
L 427.245731 245.06914 
L 429.922147 237.628675 
L 432.317294 230.089117 
L 434.427506 222.4611 
L 436.249517 214.755392 
L 437.780468 206.982884 
L 439.017911 199.154571 
L 439.959815 191.281537 
L 440.604567 183.374942 
L 440.950974 175.446001 
L 440.99827 167.505973 
L 440.746109 159.566145 
L 440.194575 151.637809 
L 439.344177 143.732256 
L 438.195847 135.860753 
L 436.750946 128.034529 
L 435.011256 120.264759 
L 432.978979 112.562547 
L 430.656739 104.938913 
L 428.047571 97.404774 
L 425.154923 89.97093 
L 421.982651 82.648047 
L 418.53501 75.446647 
L 414.816651 68.377083 
L 410.832616 61.449534 
L 406.588328 54.673985 
L 402.089587 48.060214 
L 397.342558 41.617777 
L 392.353769 35.355996 
L 387.130093 29.283944 
L 381.678746 23.410433 
L 376.007277 17.743999 
L 370.12355 12.292893 
L 364.035742 7.065065 
L 357.752326 2.068156 
L 353.637416 -1 
M 101.655502 -1 
L 96.715446 2.672974 
L 90.33542 7.758339 
L 84.148847 13.082979 
L 78.164701 18.639534 
L 72.391676 24.420308 
L 66.838174 30.417278 
L 61.512292 36.622108 
L 56.42181 43.026158 
L 51.574179 49.620497 
L 46.976513 56.395915 
L 42.635576 63.342936 
L 38.557772 70.451832 
L 34.749138 77.712634 
L 31.215331 85.11515 
L 27.961625 92.648977 
L 24.992898 100.303516 
L 22.313627 108.067986 
L 19.927881 115.931439 
L 17.839317 123.882779 
L 16.05117 131.910774 
L 14.566251 140.004071 
L 13.386943 148.151218 
L 12.515196 156.340671 
L 11.952523 164.560821 
L 11.7 172.8 
L 11.758261 181.046506 
L 12.127501 189.288616 
L 12.807469 197.5146 
L 13.797476 205.712744 
L 15.096387 213.871361 
L 16.702629 221.97881 
L 18.61419 230.023514 
L 20.828621 237.993973 
L 23.343042 245.878785 
L 26.15414 253.666657 
L 29.25818 261.346425 
L 32.651005 268.90707 
L 36.328046 276.337731 
L 40.284322 283.627725 
L 44.514453 290.766556 
L 49.012663 297.743936 
L 53.772791 304.549798 
L 58.788297 311.17431 
L 64.052272 317.607887 
L 69.557446 323.841212 
L 75.296202 329.865239 
L 81.260583 335.671217 
L 87.442303 341.250694 
L 93.838381 346.6 
M 372.525413 346.6 
L 377.86706 342.202447 
L 384.213627 336.594877 
L 390.346959 330.74953 
L 396.258145 324.674515 
L 401.938586 318.378274 
L 407.380002 311.869572 
L 412.574447 305.157483 
L 417.514319 298.25138 
L 422.192371 291.160917 
L 426.601723 283.896022 
L 430.735873 276.466878 
L 434.588702 268.88391 
L 438.154487 261.157771 
L 441.427909 253.299329 
L 444.40406 245.319648 
L 447.078451 237.229972 
L 449.447019 229.041715 
L 451.506131 220.766439 
L 453.252593 212.415839 
L 454.683651 204.001729 
L 455.796999 195.536023 
L 456.590782 187.030718 
L 457.063595 178.497877 
L 457.21449 169.949615 
L 457.042978 161.398077 
L 456.549026 152.855424 
L 455.733059 144.333815 
L 454.595964 135.845388 
L 453.139083 127.402247 
L 451.364214 119.016439 
L 449.273609 110.699941 
L 446.869974 102.464642 
L 444.156458 94.322325 
L 441.136658 86.284651 
L 437.814607 78.363142 
L 434.194772 70.569165 
L 430.282048 62.913914 
L 426.081752 55.408397 
L 421.599611 48.063416 
L 416.841762 40.889556 
L 411.814737 33.897168 
L 406.525458 27.09635 
L 400.981224 20.496939 
L 395.189706 14.108494 
L 389.158929 7.94028 
L 382.89727 2.001259 
L 379.538783 -1 
M 75.628926 -1 
L 71.041541 3.100477 
L 64.689602 9.159005 
L 58.567999 15.45529 
L 52.68563 21.980573 
L 47.051062 28.725765 
L 41.672516 35.681456 
L 36.557855 42.837928 
L 31.714574 50.185168 
L 27.149788 57.712886 
L 22.870222 65.410525 
L 18.882199 73.267278 
L 15.191635 81.272102 
L 11.804027 89.413734 
L 8.724444 97.680709 
L 5.957522 106.061372 
L 3.507457 114.543897 
L 1.377997 123.116303 
L -0.427564 131.766474 
L -1 134.918835 
M -1 215.84692 
L -0.275909 219.815404 
L 0.915294 225.611996 
L 2.252174 231.378406 
L 3.733967 237.11097 
L 5.359816 242.806047 
L 7.128773 248.460017 
L 9.039797 254.069283 
L 11.091761 259.630274 
L 13.283443 265.139451 
L 15.613535 270.5933 
L 18.08064 275.988345 
L 20.683275 281.321144 
L 23.419867 286.588291 
L 26.288762 291.786421 
L 29.288218 296.91221 
L 32.416412 301.962378 
L 35.671435 306.933693 
L 39.0513 311.822968 
L 42.55394 316.627068 
L 46.177208 321.34291 
L 49.918878 325.967464 
L 53.776652 330.497757 
L 57.748154 334.930875 
L 61.830937 339.263961 
L 66.022479 343.494223 
L 69.245083 346.6 
M 397.241628 346.6 
L 399.709694 344.250783 
L 404.011474 339.986817 
L 408.205857 335.614906 
L 412.290134 331.137756 
L 416.261663 326.55814 
L 420.117875 321.878897 
L 423.856268 317.102933 
L 427.474418 312.233213 
L 430.969972 307.272765 
L 434.340656 302.224676 
L 437.584271 297.09209 
L 440.6987 291.878205 
L 443.681905 286.586274 
L 446.531929 281.2196 
L 449.2469 275.781534 
L 451.825029 270.275476 
L 454.264614 264.70487 
L 456.564038 259.073202 
L 458.721772 253.383999 
L 460.736378 247.640826 
L 461.8 244.400557 
M 461.8 95.968513 
L 460.371628 91.6337 
L 458.319828 85.857029 
L 456.122909 80.13223 
L 453.782181 74.462949 
L 451.299048 68.852798 
L 448.675003 63.305357 
L 445.911631 57.824163 
L 443.010604 52.412717 
L 439.973684 47.074476 
L 436.802716 41.812853 
L 433.499635 36.631215 
L 430.066458 31.532879 
L 426.505287 26.521111 
L 422.818304 21.599125 
L 419.007773 16.770081 
L 415.076037 12.037079 
L 411.025518 7.403161 
L 406.858712 2.87131 
L 403.122178 -1 
M 51.944214 -1 
L 48.773093 2.240981 
L 44.495951 6.81599 
L 40.334061 11.498266 
L 36.290114 16.284908 
L 32.366726 21.172943 
L 28.56644 26.159335 
L 24.891723 31.240984 
L 21.344961 36.414726 
L 17.928463 41.677339 
L 14.644457 47.025545 
L 11.495086 52.456005 
L 8.482411 57.965332 
L 5.608408 63.550083 
L 2.874963 69.206768 
L 0.28388 74.931848 
L -1 77.920692 
M -1 272.963859 
L 0.869818 277.306185 
L 3.510275 283.069621 
L 6.295464 288.766338 
L 9.223699 294.3927 
L 12.293203 299.945116 
L 15.502108 305.420039 
L 18.848457 310.813967 
L 22.330207 316.12345 
L 25.945225 321.345089 
L 29.691296 326.475539 
L 33.566118 331.51151 
L 37.56731 336.44977 
L 41.692406 341.287149 
L 46.478771 346.6 
M 420.111276 346.6 
L 422.346172 344.178707 
L 426.641723 339.342887 
L 430.815431 334.399392 
L 434.864596 329.351292 
L 438.786597 324.201725 
L 442.578891 318.953895 
L 446.239016 313.611069 
L 449.764592 308.176575 
L 453.153323 302.653803 
L 456.402998 297.0462 
L 459.511494 291.357265 
L 461.8 286.927296 
M 461.8 53.315361 
L 460.204749 50.198759 
L 457.107581 44.430534 
L 453.865615 38.740556 
L 450.480828 33.132459 
L 446.955289 27.60983 
L 443.291154 22.176201 
L 439.490672 16.83505 
L 435.556176 11.5898 
L 431.490087 6.443812 
L 427.294909 1.40039 
L 425.22045 -1 
M 29.749598 -1 
L 25.814865 3.552457 
L 21.575317 8.707114 
L 17.465654 13.967976 
L 13.488538 19.331771 
L 9.646548 24.795158 
L 5.942176 30.354733 
L 2.377831 36.00703 
L -1 41.673349 
M -1 309.317872 
L 1.715997 313.927868 
L 5.280503 319.665555 
L 8.988979 325.313207 
L 12.83915 330.86721 
L 16.828651 336.32401 
L 20.955029 341.68011 
L 24.942863 346.6 
M 441.734726 346.6 
L 445.59362 341.897549 
L 449.827038 336.475054 
L 453.923809 330.946568 
L 457.881279 325.315535 
L 461.8 319.424092 
M 461.8 20.731783 
L 458.481635 15.691915 
L 454.513888 9.971729 
L 450.402671 4.351755 
L 446.278906 -1 
M 8.598564 -1 
L 4.480269 4.281915 
L -1 11.750606 
M -1 339.347117 
L 1.831251 343.294041 
L 4.291478 346.6 
L 4.291478 346.6 
" style="fill:none;stroke:#800080;stroke-linecap:square;stroke-width:5;"/>
   </g>
  </g>
 </g>
 <defs>
  <clipPath id="p32ffd00f17">
   <path d="M 392.4 172.8 
C 392.4 151.526355 388.209556 130.459569 380.068484 110.805284 
C 371.927413 91.150999 359.994037 73.29144 344.951299 58.248701 
C 329.90856 43.205963 312.049001 31.272587 292.394716 23.131516 
C 272.740431 14.990444 251.673645 10.8 230.4 10.8 
C 209.126355 10.8 188.059569 14.990444 168.405284 23.131516 
C 148.750999 31.272587 130.89144 43.205963 115.848701 58.248701 
C 100.805963 73.29144 88.872587 91.150999 80.731516 110.805284 
C 72.590444 130.459569 68.4 151.526355 68.4 172.8 
C 68.4 194.073645 72.590444 215.140431 80.731516 234.794716 
C 88.872587 254.449001 100.805963 272.30856 115.848701 287.351299 
C 130.89144 302.394037 148.750999 314.327413 168.405284 322.468484 
C 188.059569 330.609556 209.126355 334.8 230.4 334.8 
C 251.673645 334.8 272.740431 330.609556 292.394716 322.468484 
C 312.049001 314.327413 329.90856 302.394037 344.951299 287.351299 
C 359.994037 272.30856 371.927413 254.449001 380.068484 234.794716 
C 388.209556 215.140431 392.4 194.073645 392.4 172.8 
M 230.4 172.8 
C 230.4 172.8 230.4 172.8 230.4 172.8 
C 230.4 172.8 230.4 172.8 230.4 172.8 
C 230.4 172.8 230.4 172.8 230.4 172.8 
C 230.4 172.8 230.4 172.8 230.4 172.8 
C 230.4 172.8 230.4 172.8 230.4 172.8 
C 230.4 172.8 230.4 172.8 230.4 172.8 
C 230.4 172.8 230.4 172.8 230.4 172.8 
C 230.4 172.8 230.4 172.8 230.4 172.8 
C 230.4 172.8 230.4 172.8 230.4 172.8 
C 230.4 172.8 230.4 172.8 230.4 172.8 
C 230.4 172.8 230.4 172.8 230.4 172.8 
C 230.4 172.8 230.4 172.8 230.4 172.8 
C 230.4 172.8 230.4 172.8 230.4 172.8 
C 230.4 172.8 230.4 172.8 230.4 172.8 
C 230.4 172.8 230.4 172.8 230.4 172.8 
C 230.4 172.8 230.4 172.8 230.4 172.8 
M 392.4 172.8 
z
"/>
  </clipPath>
 </defs>
</svg>
